<svg style="display:none">
	<symbol id="ChevronLeft" width="7" height="12" viewBox="0 0 7 12" fill="none" xmlns="http://www.w3.org/2000/svg">
		<path d="M6 11L1 6L6 1" stroke="currentColor" stroke-linecap="round" stroke-linejoin="round"/>
	</symbol>

	
	<symbol id="ChevronRight" viewBox="0 0 7 12" fill="none" xmlns="http://www.w3.org/2000/svg">
		<path d="M1 1L6 6L1 11" stroke="currentColor" stroke-linecap="round" stroke-linejoin="round"/>
	</symbol>

	
	<!--
	<symbol id="ChevronUp" xmlns="http://www.w3.org/2000/svg" viewBox="0 0 25 24" fill="currentColor"><path fill-rule="evenodd" clip-rule="evenodd" d="M11.7929 8.29289C12.1834 7.90237 12.8166 7.90237 13.2071 8.29289L19.2071 14.2929C19.5976 14.6834 19.5976 15.3166 19.2071 15.7071C18.8166 16.0976 18.1834 16.0976 17.7929 15.7071L12.5 10.4142L7.20711 15.7071C6.81658 16.0976 6.18342 16.0976 5.79289 15.7071C5.40237 15.3166 5.40237 14.6834 5.79289 14.2929L11.7929 8.29289Z"/></symbol>
	<symbol id="ChevronDown" xmlns="http://www.w3.org/2000/svg" viewBox="0 0 32 32" fill="currentColor"><path fill-rule="evenodd" clip-rule="evenodd" d="M7.05703 11.0572C7.57773 10.5365 8.42195 10.5365 8.94265 11.0572L15.9998 18.1144L23.057 11.0572C23.5777 10.5365 24.4219 10.5365 24.9426 11.0572C25.4633 11.5779 25.4633 12.4221 24.9426 12.9428L16.9426 20.9428C16.4219 21.4635 15.5777 21.4635 15.057 20.9428L7.05703 12.9428C6.53633 12.4221 6.53633 11.5779 7.05703 11.0572Z"/></symbol>	<symbol id="QuestionMarkCircle" xmlns="http://www.w3.org/2000/svg" fill="none" viewBox="0 0 24 24" stroke="currentColor"><path stroke-linecap="round" stroke-linejoin="round" d="M9.879 7.519c1.171-1.025 3.071-1.025 4.242 0 1.172 1.025 1.172 2.687 0 3.712-.203.179-.43.326-.67.442-.745.361-1.45.999-1.45 1.827v.75M21 12a9 9 0 11-18 0 9 9 0 0118 0zm-9 5.25h.008v.008H12v-.008z" /></symbol>
	<symbol id="User" width="20" height="20" viewBox="0 0 20 20" fill="none" xmlns="http://www.w3.org/2000/svg"><path fill-rule="evenodd" clip-rule="evenodd" d="M10.0003 3.33366C8.61961 3.33366 7.50033 4.45295 7.50033 5.83366C7.50033 7.21437 8.61961 8.33366 10.0003 8.33366C11.381 8.33366 12.5003 7.21437 12.5003 5.83366C12.5003 4.45295 11.381 3.33366 10.0003 3.33366ZM5.83366 5.83366C5.83366 3.53247 7.69914 1.66699 10.0003 1.66699C12.3015 1.66699 14.167 3.53247 14.167 5.83366C14.167 8.13484 12.3015 10.0003 10.0003 10.0003C7.69914 10.0003 5.83366 8.13484 5.83366 5.83366ZM8.33366 13.3337C7.67062 13.3337 7.03473 13.597 6.56589 14.0659C6.09705 14.5347 5.83366 15.1706 5.83366 15.8337V17.5003C5.83366 17.9606 5.46056 18.3337 5.00033 18.3337C4.54009 18.3337 4.16699 17.9606 4.16699 17.5003V15.8337C4.16699 14.7286 4.60598 13.6688 5.38738 12.8874C6.16878 12.106 7.22859 11.667 8.33366 11.667H11.667C12.7721 11.667 13.8319 12.106 14.6133 12.8874C15.3947 13.6688 15.8337 14.7286 15.8337 15.8337V17.5003C15.8337 17.9606 15.4606 18.3337 15.0003 18.3337C14.5401 18.3337 14.167 17.9606 14.167 17.5003V15.8337C14.167 15.1706 13.9036 14.5347 13.4348 14.0659C12.9659 13.597 12.33 13.3337 11.667 13.3337H8.33366Z" fill="currentColor"/></symbol>
	<symbol id="ShoppingCart" width="20" height="20" viewBox="0 0 20 20" fill="none" xmlns="http://www.w3.org/2000/svg"><path d="M14.9997 5.00033H13.333C13.333 3.15866 11.8413 1.66699 9.99968 1.66699C8.15801 1.66699 6.66634 3.15866 6.66634 5.00033H4.99967C4.08301 5.00033 3.33301 5.75033 3.33301 6.66699V16.667C3.33301 17.5837 4.08301 18.3337 4.99967 18.3337H14.9997C15.9163 18.3337 16.6663 17.5837 16.6663 16.667V6.66699C16.6663 5.75033 15.9163 5.00033 14.9997 5.00033ZM9.99968 3.33366C10.9163 3.33366 11.6663 4.08366 11.6663 5.00033H8.33301C8.33301 4.08366 9.08301 3.33366 9.99968 3.33366ZM14.9997 16.667H4.99967V6.66699H6.66634V8.33366C6.66634 8.79199 7.04134 9.16699 7.49967 9.16699C7.95801 9.16699 8.33301 8.79199 8.33301 8.33366V6.66699H11.6663V8.33366C11.6663 8.79199 12.0413 9.16699 12.4997 9.16699C12.958 9.16699 13.333 8.79199 13.333 8.33366V6.66699H14.9997V16.667Z" fill="currentColor"/></symbol>
	<symbol id="Bars3" xmlns="http://www.w3.org/2000/svg" viewBox="0 0 20 20" stroke="currentColor" fill="none"><path fill-rule="evenodd" clip-rule="evenodd" d="M2.5 5.00033C2.5 4.54009 2.8731 4.16699 3.33333 4.16699H16.6667C17.1269 4.16699 17.5 4.54009 17.5 5.00033C17.5 5.46056 17.1269 5.83366 16.6667 5.83366H3.33333C2.8731 5.83366 2.5 5.46056 2.5 5.00033ZM2.5 10.0003C2.5 9.54009 2.8731 9.16699 3.33333 9.16699H16.6667C17.1269 9.16699 17.5 9.54009 17.5 10.0003C17.5 10.4606 17.1269 10.8337 16.6667 10.8337H3.33333C2.8731 10.8337 2.5 10.4606 2.5 10.0003ZM2.5 15.0003C2.5 14.5401 2.8731 14.167 3.33333 14.167H16.6667C17.1269 14.167 17.5 14.5401 17.5 15.0003C17.5 15.4606 17.1269 15.8337 16.6667 15.8337H3.33333C2.8731 15.8337 2.5 15.4606 2.5 15.0003Z" fill="currentColor"/></symbol>
	<symbol id="Heart" xmlns="http://www.w3.org/2000/svg" viewBox="0 0 24 24" stroke="currentColor"><path stroke-linecap="round" stroke-linejoin="round" d="M21 8.25c0-2.485-2.099-4.5-4.688-4.5-1.935 0-3.597 1.126-4.312 2.733-.715-1.607-2.377-2.733-4.313-2.733C5.1 3.75 3 5.765 3 8.25c0 7.22 9 12 9 12s9-4.78 9-12z" /></symbol>
	<symbol id="MagnifyingGlass" width="20" height="20" viewBox="0 0 20 20" fill="none" xmlns="http://www.w3.org/2000/svg"><path fill-rule="evenodd" clip-rule="evenodd" d="M8.33366 3.33366C5.57223 3.33366 3.33366 5.57223 3.33366 8.33366C3.33366 11.0951 5.57223 13.3337 8.33366 13.3337C11.0951 13.3337 13.3337 11.0951 13.3337 8.33366C13.3337 5.57223 11.0951 3.33366 8.33366 3.33366ZM1.66699 8.33366C1.66699 4.65176 4.65176 1.66699 8.33366 1.66699C12.0156 1.66699 15.0003 4.65176 15.0003 8.33366C15.0003 9.87425 14.4778 11.2928 13.6002 12.4217L18.0896 16.9111C18.415 17.2365 18.415 17.7641 18.0896 18.0896C17.7641 18.415 17.2365 18.415 16.9111 18.0896L12.4217 13.6002C11.2928 14.4778 9.87425 15.0003 8.33366 15.0003C4.65176 15.0003 1.66699 12.0156 1.66699 8.33366Z" fill="currentColor"/></symbol>
	<symbol id="XMark" xmlns="http://www.w3.org/2000/svg" fill="none" viewBox="0 0 24 24" stroke="currentColor"><path stroke-linecap="round" stroke-linejoin="round" d="M6 18L18 6M6 6l12 12" /></symbol>
	<symbol id="Plus" xmlns="http://www.w3.org/2000/svg" fill="none" viewBox="0 0 24 24" stroke="currentColor"><path stroke-linecap="round" stroke-linejoin="round" d="M12 4.5v15m7.5-7.5h-15" /></symbol>
	<symbol id="Minus" xmlns="http://www.w3.org/2000/svg" fill="none" viewBox="0 0 24 24" stroke="currentColor"><path stroke-linecap="round" stroke-linejoin="round" d="M19.5 12h-15" /></symbol>
	<symbol id="MapPin" xmlns="http://www.w3.org/2000/svg" fill="none" viewBox="0 0 24 24" stroke="currentColor"><path stroke-linecap="round" stroke-linejoin="round" d="M15 10.5a3 3 0 11-6 0 3 3 0 016 0z" /><path stroke-linecap="round" stroke-linejoin="round" d="M19.5 10.5c0 7.142-7.5 11.25-7.5 11.25S4.5 17.642 4.5 10.5a7.5 7.5 0 1115 0z" /></symbol>	
	<symbol id="Phone" xmlns="http://www.w3.org/2000/svg" fill="currentColor" viewBox="0 0 32 32"><path fill-rule="evenodd" clip-rule="evenodd" d="M6.66669 6.66667C6.31306 6.66667 5.97393 6.80714 5.72388 7.05719C5.4819 7.29917 5.34253 7.62459 5.33379 7.96582C5.64045 12.8244 7.70881 17.405 11.1519 20.8481C14.5951 24.2912 19.1756 26.3596 24.0342 26.6662C24.3754 26.6575 24.7008 26.5181 24.9428 26.2761C25.1929 26.0261 25.3334 25.687 25.3334 25.3333V20.9027L20.5591 18.993L19.1433 21.3527C18.7863 21.9477 18.0326 22.1694 17.4103 21.8625C14.2517 20.3047 11.6953 17.7483 10.1375 14.5898C9.83061 13.9674 10.0523 13.2137 10.6474 12.8567L13.007 11.4409L11.0973 6.66667H6.66669ZM3.83826 5.17157C4.58841 4.42143 5.60582 4 6.66669 4H12C12.5452 4 13.0355 4.33193 13.238 4.83815L15.9047 11.5048C16.1477 12.1124 15.9138 12.8066 15.3527 13.1433L13.1207 14.4825C14.2192 16.274 15.726 17.7809 17.5175 18.8793L18.8567 16.6473C19.1934 16.0862 19.8876 15.8523 20.4952 16.0954L27.1619 18.762C27.6681 18.9645 28 19.4548 28 20V25.3333C28 26.3942 27.5786 27.4116 26.8284 28.1618C26.0783 28.9119 25.0609 29.3333 24 29.3333C23.973 29.3333 23.9461 29.3325 23.9191 29.3309C18.3931 28.9951 13.181 26.6484 9.26632 22.7337C5.35161 18.819 3.00496 13.6069 2.66914 8.08088C2.66751 8.05395 2.66669 8.02698 2.66669 8C2.66669 6.93913 3.08811 5.92172 3.83826 5.17157Z" /></symbol>
	<symbol id="Elos" xmlns="http://www.w3.org/2000/svg" viewBox="0 0 40 14" stroke="currentColor" fill="none"><path d="M6.57655 3.09309C6.98496 2.95495 7.4234 2.88288 7.87985 2.88288C9.87385 2.88288 11.5375 4.3003 11.9159 6.18018L14.7387 5.6036C14.0901 2.40841 11.2672 0 7.87985 0C7.10508 0 6.36033 0.126126 5.66364 0.36036L6.57655 3.09309Z" fill="currentColor"/><path d="M3.24323 12.2463L5.15314 10.0841C4.30029 9.32733 3.76576 8.22823 3.76576 6.997C3.76576 5.77178 4.30029 4.66667 5.15314 3.91592L3.24323 1.75977C1.79579 3.04505 0.882874 4.91292 0.882874 7.00301C0.882874 9.08709 1.79579 10.961 3.24323 12.2463Z" fill="currentColor"/><path d="M11.9159 7.82617C11.5315 9.70605 9.87387 11.1175 7.87988 11.1175C7.42342 11.1175 6.98498 11.0454 6.57057 10.9073L5.65765 13.64C6.35435 13.8742 7.1051 14.0003 7.87988 14.0003C11.2673 14.0003 14.0901 11.5979 14.7387 8.40275L11.9159 7.82617Z" fill="currentColor"/><path d="M24.1441 9.75962C23.6757 10.2161 23.045 10.4924 22.3484 10.4803C21.8679 10.4743 21.4234 10.3302 21.0511 10.0899L20.1141 11.5794C20.7568 11.9818 21.5075 12.2221 22.3243 12.2341C23.5075 12.2521 24.5886 11.7836 25.3754 11.0209L24.1441 9.75962ZM22.4505 3.68755C20.0961 3.65151 18.1502 5.5374 18.1141 7.89175C18.1021 8.77463 18.3544 9.60346 18.8048 10.2881L26.5405 6.97884C26.1081 5.12298 24.4505 3.72358 22.4505 3.68755ZM19.8859 8.22809C19.8739 8.13199 19.8679 8.02989 19.8679 7.92779C19.8919 6.5404 21.033 5.42929 22.4204 5.45331C23.1772 5.46532 23.8499 5.80767 24.3003 6.34821L19.8859 8.22809ZM28.973 1.76562V10.0119L30.4024 10.6065L29.7237 12.2341L28.3063 11.6455C27.988 11.5074 27.7718 11.2972 27.6096 11.0569C27.4535 10.8167 27.3333 10.4803 27.3333 10.0359V1.76562H28.973Z" fill="currentColor"/><path d="M34.1321 5.57925C34.3844 5.49516 34.6487 5.45312 34.9309 5.45312C36.1502 5.45312 37.1592 6.31798 37.3934 7.46513L39.1171 7.11078C38.7207 5.15882 36.997 3.69336 34.9309 3.69336C34.4565 3.69336 34 3.77144 33.5796 3.90958L34.1321 5.57925ZM32.0961 11.1588L33.2613 9.84351C32.7387 9.38105 32.4144 8.70837 32.4144 7.95762C32.4144 7.20687 32.7448 6.5342 33.2613 6.07774L32.0961 4.76243C31.2132 5.54321 30.6547 6.69036 30.6547 7.96363C30.6547 9.2369 31.2132 10.378 32.0961 11.1588ZM37.3934 8.46813C37.1592 9.61528 36.1442 10.4801 34.9309 10.4801C34.6547 10.4801 34.3844 10.4321 34.1321 10.348L33.5736 12.0177C34 12.1618 34.4565 12.2399 34.9309 12.2399C36.997 12.2399 38.7207 10.7744 39.1171 8.82249L37.3934 8.46813Z" fill="currentColor"/></symbol>
	<symbol id="Mastercards" xmlns="http://www.w3.org/2000/svg" viewBox="0 0 26 20" fill="none" stroke="currentColor"><g clip-path="url(#clip0_81_156)"><path d="M4.77191 19.9552V18.6263C4.77191 18.1167 4.46174 17.7846 3.95265 17.7846C3.68527 17.7846 3.39918 17.8734 3.19971 18.159C3.04463 17.9151 2.82538 17.7846 2.49116 17.7846C2.36689 17.7793 2.24323 17.8048 2.13124 17.8589C2.01926 17.913 1.92244 17.9941 1.84944 18.0948V17.8274H1.42859V19.9536H1.84944V18.737C1.84944 18.3627 2.07083 18.1836 2.381 18.1836C2.69116 18.1836 2.86816 18.383 2.86816 18.737V19.9552H3.28902V18.737C3.28902 18.3627 3.51041 18.1836 3.82057 18.1836C4.13073 18.1836 4.30773 18.383 4.30773 18.737V19.9552H4.77191ZM11.6821 17.8509H10.9067V17.2092H10.4869V17.8509H10.0441V18.2253H10.4869V19.2242C10.4869 19.7114 10.6639 19.9996 11.1954 19.9996C11.3968 19.9954 11.5941 19.9422 11.7703 19.8445L11.6371 19.4702C11.5177 19.5449 11.3791 19.5833 11.2382 19.5809C11.0168 19.5809 10.9061 19.4477 10.9061 19.2263V18.2082H11.6815V17.8536L11.6821 17.8509ZM15.6243 17.7846C15.5097 17.7821 15.3964 17.8093 15.2954 17.8637C15.1945 17.918 15.1093 17.9977 15.0484 18.0948V17.8274H14.6275V19.9536H15.0484V18.7595C15.0484 18.405 15.2254 18.1836 15.5136 18.1836C15.6109 18.1875 15.7074 18.2024 15.8013 18.2279L15.9345 17.829C15.8329 17.8034 15.729 17.7885 15.6243 17.7846ZM9.66656 18.006C9.44517 17.8509 9.13501 17.7846 8.80292 17.7846C8.27137 17.7846 7.93928 18.0285 7.93928 18.4493C7.93928 18.8039 8.18314 19.0028 8.64784 19.0697L8.86923 19.0916C9.11308 19.136 9.26816 19.2247 9.26816 19.3354C9.26816 19.4905 9.09116 19.6028 8.75854 19.6028C8.50456 19.608 8.2558 19.5303 8.04998 19.3814L7.82859 19.7135C8.13875 19.9349 8.51522 19.9809 8.73768 19.9809C9.358 19.9809 9.69009 19.6932 9.69009 19.2943C9.69009 18.9199 9.42271 18.7408 8.95907 18.6739L8.73768 18.652C8.53822 18.6301 8.36335 18.5632 8.36335 18.4306C8.36335 18.2755 8.54036 18.1632 8.78421 18.1632C9.05159 18.1632 9.31576 18.2739 9.44891 18.3402L9.66656 18.006ZM16.0896 18.8921C16.0896 19.5338 16.5104 19.9996 17.197 19.9996C17.5072 19.9996 17.7286 19.9333 17.95 19.7558L17.7286 19.4237C17.5718 19.5506 17.3768 19.6209 17.1751 19.6231C16.8008 19.6231 16.5104 19.3354 16.5104 18.9146C16.5104 18.4937 16.797 18.2082 17.1751 18.2082C17.3768 18.2104 17.5718 18.2807 17.7286 18.4076L17.95 18.0755C17.7286 17.8985 17.5072 17.8317 17.197 17.8317C16.5323 17.7873 16.0896 18.2525 16.0896 18.8948V18.8921ZM13.1216 17.7846C12.5013 17.7846 12.0805 18.2274 12.0805 18.8921C12.0805 19.5568 12.5232 19.9996 13.1655 19.9996C13.4779 20.0062 13.7831 19.9046 14.0291 19.7119L13.8077 19.4017C13.6298 19.5396 13.4125 19.6172 13.1874 19.6231C12.8997 19.6231 12.5896 19.4461 12.5457 19.0697H14.1184V18.8927C14.1184 18.2279 13.7195 17.7852 13.1216 17.7852V17.7846ZM13.0997 18.1836C13.4099 18.1836 13.6313 18.383 13.6532 18.7151H12.5019C12.5682 18.405 12.7692 18.1836 13.0997 18.1836ZM7.36335 18.8921V17.829H6.94249V18.0964C6.78741 17.8969 6.56816 17.7862 6.25586 17.7862C5.658 17.7862 5.21469 18.2515 5.21469 18.8937C5.21469 19.536 5.65747 20.0012 6.25586 20.0012C6.56602 20.0012 6.78741 19.8905 6.94249 19.691V19.9584H7.36335V18.8921ZM5.658 18.8921C5.658 18.4932 5.90185 18.1836 6.32271 18.1836C6.72164 18.1836 6.96442 18.4937 6.96442 18.8921C6.96442 19.313 6.69704 19.6007 6.32271 19.6007C5.90185 19.6226 5.658 19.2905 5.658 18.8921ZM22.0259 17.7846C21.9113 17.7821 21.798 17.8093 21.697 17.8637C21.5961 17.918 21.5109 17.9977 21.45 18.0948V17.8274H21.0291V19.9536H21.4495V18.7595C21.4495 18.405 21.6265 18.1836 21.9147 18.1836C22.012 18.1875 22.1085 18.2024 22.2024 18.2279L22.3355 17.829C22.234 17.8034 22.13 17.7885 22.0254 17.7846H22.0259ZM20.3869 18.8921V17.829H19.966V18.0964C19.8109 17.8969 19.5917 17.7862 19.2794 17.7862C18.6815 17.7862 18.2382 18.2515 18.2382 18.8937C18.2382 19.536 18.681 20.0012 19.2794 20.0012C19.5896 20.0012 19.8109 19.8905 19.966 19.691V19.9584H20.3869V18.8921ZM18.6815 18.8921C18.6815 18.4932 18.9254 18.1836 19.3462 18.1836C19.7452 18.1836 19.988 18.4937 19.988 18.8921C19.988 19.313 19.7206 19.6007 19.3462 19.6007C18.9254 19.6226 18.6815 19.2905 18.6815 18.8921ZM24.6618 18.8921V16.9873H24.2409V18.0948C24.0858 17.8953 23.8666 17.7846 23.5543 17.7846C22.9564 17.7846 22.5131 18.2499 22.5131 18.8921C22.5131 19.5344 22.9559 19.9996 23.5543 19.9996C23.8644 19.9996 24.0858 19.8889 24.2409 19.6894V19.9568H24.6618V18.8921ZM22.9564 18.8921C22.9564 18.4932 23.2003 18.1836 23.6211 18.1836C24.02 18.1836 24.2628 18.4937 24.2628 18.8921C24.2628 19.313 23.9954 19.6007 23.6211 19.6007C23.1997 19.6231 22.9559 19.291 22.9559 18.8921H22.9564Z" fill="currentColor"/><path d="M9.95478 7.97327C9.95505 6.76731 10.2281 5.57704 10.7536 4.49159C11.279 3.40613 12.0433 2.45361 12.989 1.70535C11.8128 0.780601 10.4002 0.205442 8.9126 0.045623C7.42499 -0.114196 5.92242 0.147775 4.57667 0.801588C3.23091 1.4554 2.09627 2.47468 1.30244 3.74289C0.508619 5.01111 0.0876465 6.47709 0.0876465 7.97327C0.0876465 9.46944 0.508619 10.9354 1.30244 12.2036C2.09627 13.4719 3.23091 14.4911 4.57667 15.1449C5.92242 15.7988 7.42499 16.0607 8.9126 15.9009C10.4002 15.7411 11.8128 15.1659 12.989 14.2412C12.0433 13.4929 11.279 12.5404 10.7536 11.4549C10.2281 10.3695 9.95505 9.17922 9.95478 7.97327Z" fill="currentColor"/><path d="M25.9019 7.97297C25.9029 9.46805 25.4832 10.9333 24.6907 12.201C23.8982 13.4688 22.7648 14.4879 21.4203 15.1418C20.0758 15.7957 18.5744 16.0579 17.0879 15.8986C15.6013 15.7393 14.1896 15.1648 13.0142 14.2409C13.9601 13.4928 14.7245 12.5403 15.25 11.4548C15.7755 10.3693 16.0485 9.17898 16.0485 7.97297C16.0485 6.76696 15.7755 5.5766 15.25 4.4911C14.7245 3.4056 13.9601 2.45312 13.0142 1.70506C14.1896 0.781104 15.6013 0.20662 17.0879 0.0473072C18.5744 -0.112005 20.0758 0.150287 21.4203 0.804186C22.7648 1.45808 23.8982 2.47719 24.6907 3.74493C25.4832 5.01268 25.9029 6.47789 25.9019 7.97297Z" fill="currentColor" fill-opacity="0.4"/><path fill-rule="evenodd" clip-rule="evenodd" d="M13.0141 1.70508H12.989C12.0432 2.45333 11.279 3.40585 10.7536 4.49131C10.2281 5.57677 9.95504 6.76704 9.95477 7.97299C9.95504 9.17894 10.2281 10.3692 10.7536 11.4547C11.279 12.5401 12.0433 13.4926 12.989 14.2409H13.0141C13.0141 14.2409 13.0141 14.2409 13.0141 14.2409C13.9601 13.4928 14.7245 12.5404 15.25 11.4549C15.7755 10.3694 16.0484 9.17899 16.0484 7.97299C16.0484 6.76698 15.7755 5.57661 15.25 4.49111C14.7245 3.40561 13.9601 2.45314 13.0141 1.70508Z" fill="currentColor" fill-opacity="0.6"/></g><defs><clipPath id="clip0_81_156"><rect width="25.8027" height="20" fill="white" transform="translate(0.0986328)"/></clipPath></defs></symbol>
	<symbol id="Visas" xmlns="http://www.w3.org/2000/svg" viewBox="0 0 40 12" fill="none" stroke="currentColor"><path d="M14.2514 11.8628L16.2325 0.237305H19.4012L17.4187 11.8628H14.2514Z" fill="currentColor"/><path d="M28.8667 0.488266C28.2389 0.252744 27.2552 0 26.0267 0C22.8956 0 20.6902 1.57674 20.6714 3.83653C20.6537 5.50698 22.2459 6.43886 23.4479 6.99494C24.6813 7.56486 25.0959 7.92824 25.09 8.437C25.0821 9.21631 24.105 9.57221 23.1942 9.57221C21.926 9.57221 21.2522 9.39601 20.2115 8.96208L19.8031 8.77728L19.3585 11.3797C20.0986 11.7043 21.4671 11.9854 22.8882 12C26.2191 12 28.3815 10.4413 28.4061 8.02807C28.4179 6.70556 27.5737 5.69921 25.7455 4.86948C24.638 4.33169 23.9597 3.97282 23.9669 3.42826C23.9669 2.94504 24.541 2.42833 25.7816 2.42833C26.8177 2.41223 27.5684 2.6382 28.1533 2.87372L28.4372 3.00787L28.8667 0.488266Z" fill="currentColor"/><path d="M37.0208 0.237305H34.5723C33.8138 0.237305 33.2461 0.444322 32.913 1.20137L28.2071 11.8552H31.5345C31.5345 11.8552 32.0785 10.4228 32.2015 10.1082C32.5651 10.1082 35.7976 10.1132 36.2597 10.1132C36.3545 10.5202 36.6452 11.8552 36.6452 11.8552H39.5855L37.0208 0.237305ZM33.136 7.74409C33.3981 7.07428 34.3985 4.49428 34.3985 4.49428C34.3798 4.52522 34.6587 3.82121 34.8186 3.38473L35.0328 4.38703C35.0328 4.38703 35.6395 7.16205 35.7663 7.74391H33.136V7.74409Z" fill="currentColor"/><path d="M0.45503 0.237305L0.414551 0.479138C1.66716 0.782359 2.78593 1.22123 3.76542 1.76717L6.57706 11.8441L9.92966 11.8404L14.9183 0.237305H11.5615L8.45929 8.16502L8.12885 6.55384C8.11337 6.50406 8.09654 6.4542 8.07932 6.40422L7.00087 1.21879C6.80912 0.482646 6.25282 0.262959 5.56461 0.237305H0.45503Z" fill="currentColor"/></symbol>		
	<symbol id="Pixs" viewBox="0 0 512 512" xmlns="http://www.w3.org/2000/svg" fill="none" stroke="currentColor"> <defs/> <g fill="currentColor" fill-rule="evenodd"> <path d="M393.072 391.897c-20.082 0-38.969-7.81-53.176-22.02l-77.069-77.067c-5.375-5.375-14.773-5.395-20.17 0l-76.784 76.786c-14.209 14.207-33.095 22.019-53.179 22.019h-9.247l97.521 97.52c30.375 30.375 79.614 30.375 109.988 0l97.239-97.238h-15.123zm-105.049 74.327c-8.55 8.53-19.93 13.25-32.05 13.25h-.02c-12.12 0-23.522-4.721-32.05-13.25l-56.855-56.855c7.875-4.613 15.165-10.248 21.758-16.84l63.948-63.948 64.23 64.23c7.637 7.66 16.188 14.013 25.478 18.952l-54.439 54.46zM310.958 22.78c-30.374-30.374-79.613-30.374-109.988 0l-97.52 97.52h9.247c20.082 0 38.97 7.834 53.178 22.02l76.784 76.785c5.57 5.592 14.622 5.57 20.17 0l77.069-77.068c14.207-14.187 33.094-22.02 53.176-22.02h15.123l-97.239-97.237zm6.028 96.346l-64.23 64.23-63.97-63.97c-6.593-6.592-13.86-12.206-21.736-16.818l56.853-56.877c17.69-17.645 46.476-17.668 64.121 0l54.44 54.461c-9.292 4.961-17.842 11.315-25.479 18.974h.001z"/> <path d="M489.149 200.97l-58.379-58.377h-37.706c-13.838 0-27.394 5.635-37.185 15.426l-77.068 77.069c-7.202 7.18-16.623 10.77-26.067 10.77-9.443 0-18.885-3.59-26.066-10.77l-76.785-76.785c-9.792-9.814-23.346-15.427-37.207-15.427h-31.81L22.78 200.97c-30.374 30.375-30.374 79.614 0 109.988l58.095 58.074 31.81.021c13.86 0 27.416-5.635 37.208-15.426l76.784-76.764c13.925-13.947 38.208-13.924 52.133-.02l77.068 77.066c9.791 9.792 23.346 15.405 37.185 15.405h37.706l58.379-58.356c30.374-30.374 30.374-79.613 0-109.988zm-362.19 129.724c-3.763 3.786-8.942 5.917-14.273 5.917H94.302l-48.59-48.564c-17.689-17.69-17.689-46.476 0-64.143L94.3 175.296h18.385c5.331 0 10.51 2.154 14.295 5.918l74.74 74.74-74.761 74.74zm339.257-42.647l-48.848 48.87h-24.305c-5.309 0-10.508-2.155-14.251-5.92l-75.023-75.043 75.023-75.023c3.743-3.764 8.942-5.918 14.252-5.918h24.304l48.847 48.891c8.573 8.551 13.273 19.93 13.273 32.05 0 12.141-4.7 23.52-13.273 32.093z"/> </g> </symbol>

	<symbol id="Truck" xmlns="http://www.w3.org/2000/svg"  viewBox="0 0 24 24" fill="currentColor"><path fill-rule="evenodd" clip-rule="evenodd" d="M1.09998 4.99998C1.09998 4.50292 1.50292 4.09998 1.99998 4.09998H13C13.497 4.09998 13.9 4.50292 13.9 4.99998V5.09998H18C18.3161 5.09998 18.6091 5.26584 18.7717 5.53693L21.7717 10.5369C21.8556 10.6768 21.9 10.8369 21.9 11V17C21.9 17.497 21.497 17.9 21 17.9H19.7576C19.3789 19.061 18.2874 19.9 17 19.9C15.7125 19.9 14.621 19.061 14.2423 17.9H9.75761C9.37893 19.061 8.28743 19.9 6.99998 19.9C5.71252 19.9 4.62102 19.061 4.24234 17.9H2.99998C2.50292 17.9 2.09998 17.497 2.09998 17V13C2.09998 12.5029 2.50292 12.1 2.99998 12.1C3.49703 12.1 3.89998 12.5029 3.89998 13V16.1H4.24234C4.62102 14.9389 5.71252 14.1 6.99998 14.1C8.28743 14.1 9.37893 14.9389 9.75761 16.1H12.1V5.89998H1.99998C1.50292 5.89998 1.09998 5.49703 1.09998 4.99998ZM13.9 6.89998V10.1H19.4104L17.4904 6.89998H13.9ZM20.1 11.9H13.9V16.1H14.2423C14.621 14.9389 15.7125 14.1 17 14.1C18.2874 14.1 19.3789 14.9389 19.7576 16.1H20.1V11.9ZM2.09998 8.99997C2.09998 8.50292 2.50292 8.09997 2.99998 8.09997H6.99998C7.49703 8.09997 7.89998 8.50292 7.89998 8.99997C7.89998 9.49703 7.49703 9.89997 6.99998 9.89997H2.99998C2.50292 9.89997 2.09998 9.49703 2.09998 8.99997ZM6.99998 15.9C6.39246 15.9 5.89998 16.3925 5.89998 17C5.89998 17.6075 6.39246 18.1 6.99998 18.1C7.60749 18.1 8.09998 17.6075 8.09998 17C8.09998 16.3925 7.60749 15.9 6.99998 15.9ZM17 15.9C16.3925 15.9 15.9 16.3925 15.9 17C15.9 17.6075 16.3925 18.1 17 18.1C17.6075 18.1 18.1 17.6075 18.1 17C18.1 16.3925 17.6075 15.9 17 15.9Z"/></symbol>
	<symbol id="Discount" xmlns="http://www.w3.org/2000/svg" viewBox="0 0 32 32" fill="currentColor"><path fill-rule="evenodd" clip-rule="evenodd" d="M20.9429 11.057C21.4636 11.5777 21.4636 12.4219 20.9429 12.9426L12.9429 20.9426C12.4222 21.4633 11.578 21.4633 11.0573 20.9426C10.5366 20.4219 10.5366 19.5777 11.0573 19.057L19.0573 11.057C19.578 10.5363 20.4222 10.5363 20.9429 11.057Z"/><path d="M12.6667 13.3333C13.0349 13.3333 13.3333 13.0349 13.3333 12.6667C13.3333 12.2985 13.0349 12 12.6667 12C12.2985 12 12 12.2985 12 12.6667C12 13.0349 12.2985 13.3333 12.6667 13.3333Z"/><path fill-rule="evenodd" clip-rule="evenodd" d="M12.6667 13.3332C13.0349 13.3332 13.3334 13.0347 13.3334 12.6665C13.3334 12.2983 13.0349 11.9998 12.6667 11.9998C12.2986 11.9998 12.0001 12.2983 12.0001 12.6665C12.0001 13.0347 12.2986 13.3332 12.6667 13.3332ZM10.6667 12.6665C10.6667 11.5619 11.5622 10.6665 12.6667 10.6665C13.7713 10.6665 14.6667 11.5619 14.6667 12.6665C14.6667 13.7711 13.7713 14.6665 12.6667 14.6665C11.5622 14.6665 10.6667 13.7711 10.6667 12.6665Z"/><path d="M19.3334 19.9998C19.7016 19.9998 20.0001 19.7014 20.0001 19.3332C20.0001 18.965 19.7016 18.6665 19.3334 18.6665C18.9652 18.6665 18.6667 18.965 18.6667 19.3332C18.6667 19.7014 18.9652 19.9998 19.3334 19.9998Z"/><path fill-rule="evenodd" clip-rule="evenodd" d="M19.3333 20.0002C19.7014 20.0002 19.9999 19.7017 19.9999 19.3335C19.9999 18.9653 19.7014 18.6668 19.3333 18.6668C18.9651 18.6668 18.6666 18.9653 18.6666 19.3335C18.6666 19.7017 18.9651 20.0002 19.3333 20.0002ZM17.3333 19.3335C17.3333 18.2289 18.2287 17.3335 19.3333 17.3335C20.4378 17.3335 21.3333 18.2289 21.3333 19.3335C21.3333 20.4381 20.4378 21.3335 19.3333 21.3335C18.2287 21.3335 17.3333 20.4381 17.3333 19.3335Z"/><path fill-rule="evenodd" clip-rule="evenodd" d="M16.0133 5.34831C15.8024 5.34831 15.5936 5.38999 15.3989 5.47096C15.2042 5.55193 15.0274 5.67059 14.8788 5.82012L14.8761 5.82277L13.9428 6.75611L13.9401 6.75875C13.1413 7.55313 12.0607 7.99932 10.9341 7.99996H9.59996C9.17562 7.99996 8.76865 8.16853 8.46859 8.46859C8.16853 8.76865 7.99996 9.17562 7.99996 9.59996V10.9333C7.99932 12.0599 7.55313 13.1413 6.75875 13.9401L6.75611 13.9428L5.82277 14.8761L5.82012 14.8788C5.67059 15.0274 5.55193 15.2042 5.47096 15.3989C5.38999 15.5936 5.34831 15.8024 5.34831 16.0133C5.34831 16.2242 5.38999 16.433 5.47096 16.6277C5.55193 16.8224 5.67059 16.9992 5.82012 17.1478L5.82278 17.1505L6.75876 18.0865C7.55313 18.8853 7.99932 19.9659 7.99996 21.0925V22.4266C7.99996 22.851 8.16854 23.2579 8.46859 23.558C8.76865 23.8581 9.17562 24.0266 9.59996 24.0266H10.9333C12.0599 24.0273 13.1413 24.4735 13.9401 25.2678L13.9428 25.2705L14.8788 26.2065C15.0274 26.356 15.2042 26.4747 15.3989 26.5556C15.5936 26.6366 15.8024 26.6783 16.0133 26.6783C16.2242 26.6783 16.433 26.6366 16.6277 26.5556C16.8224 26.4747 16.9992 26.356 17.1478 26.2065L17.1505 26.2038L18.0838 25.2705L18.0865 25.2678C18.8853 24.4735 19.9659 24.0273 21.0925 24.0266H22.4266C22.851 24.0266 23.2579 23.8581 23.558 23.558C23.8581 23.2579 24.0266 22.851 24.0266 22.4266V21.0933C24.0273 19.9667 24.4735 18.8853 25.2678 18.0865L25.2705 18.0838L26.2038 17.1505L26.2065 17.1478C26.356 16.9992 26.4747 16.8224 26.5556 16.6277C26.6366 16.433 26.6783 16.2242 26.6783 16.0133C26.6783 15.8024 26.6366 15.5936 26.5556 15.3989C26.4747 15.2042 26.356 15.0274 26.2065 14.8788L26.2038 14.8761L25.2705 13.9428L25.2678 13.9401C24.4735 13.1413 24.0273 12.0606 24.0266 10.9341V9.59996C24.0266 9.17562 23.8581 8.76865 23.558 8.46859C23.2579 8.16854 22.851 7.99996 22.4266 7.99996H21.0933C19.9667 7.99932 18.8853 7.55313 18.0865 6.75875L18.0838 6.75611L17.1505 5.82277L17.1478 5.82012C16.9992 5.67059 16.8224 5.55193 16.6277 5.47096C16.433 5.38999 16.2242 5.34831 16.0133 5.34831ZM14.375 3.00872C14.8942 2.7928 15.451 2.68164 16.0133 2.68164C16.5756 2.68164 17.1324 2.7928 17.6516 3.00872C18.1702 3.22436 18.641 3.54025 19.0372 3.93825C19.0377 3.93877 19.0382 3.93929 19.0388 3.93981L19.9668 4.86784C19.9672 4.86821 19.9675 4.86858 19.9679 4.86895C20.2673 5.16607 20.6719 5.33296 21.0937 5.3333H22.4266C23.5582 5.3333 24.6435 5.78282 25.4436 6.58298C26.2438 7.38313 26.6933 8.46837 26.6933 9.59996V10.9325C26.6935 11.3544 26.8604 11.7591 27.1575 12.0585C27.1579 12.059 27.1583 12.0594 27.1588 12.0598L28.0868 12.9878C28.0872 12.9883 28.0877 12.9887 28.0881 12.9891C28.4862 13.3854 28.8022 13.8563 29.0179 14.375C29.2338 14.8942 29.345 15.451 29.345 16.0133C29.345 16.5756 29.2338 17.1324 29.0179 17.6516C28.8022 18.1702 28.4863 18.6411 28.0883 19.0373C28.0878 19.0378 28.0873 19.0383 28.0868 19.0388L27.1588 19.9668C27.1584 19.9671 27.1581 19.9675 27.1577 19.9678C26.8605 20.2673 26.6935 20.6721 26.6933 21.0941V22.4266C26.6933 23.5582 26.2438 24.6435 25.4436 25.4436C24.6435 26.2438 23.5582 26.6933 22.4266 26.6933H21.0941C20.6721 26.6935 20.2673 26.8605 19.9678 27.1577C19.9675 27.1581 19.9671 27.1584 19.9668 27.1588L19.0388 28.0868C19.0383 28.0873 19.0378 28.0878 19.0373 28.0883C18.6411 28.4863 18.1702 28.8022 17.6516 29.0179C17.1324 29.2338 16.5756 29.345 16.0133 29.345C15.451 29.345 14.8942 29.2338 14.375 29.0179C13.8563 28.8022 13.3854 28.4862 12.9891 28.0881C12.9887 28.0877 12.9883 28.0872 12.9878 28.0868L12.0598 27.1588C12.0594 27.1583 12.059 27.1579 12.0585 27.1575C11.7591 26.8604 11.3544 26.6935 10.9325 26.6933H9.59996C8.46837 26.6933 7.38313 26.2438 6.58298 25.4436C5.78282 24.6435 5.3333 23.5582 5.3333 22.4266V21.0937C5.33296 20.6719 5.16607 20.2673 4.86895 19.9679C4.86858 19.9675 4.86821 19.9672 4.86784 19.9668L3.93981 19.0388C3.93929 19.0382 3.93877 19.0377 3.93825 19.0372C3.54025 18.641 3.22436 18.1702 3.00872 17.6516C2.7928 17.1324 2.68164 16.5756 2.68164 16.0133C2.68164 15.451 2.7928 14.8942 3.00872 14.375C3.22439 13.8564 3.54032 13.3855 3.93839 12.9893C3.93886 12.9888 3.93934 12.9883 3.93981 12.9878L4.86784 12.0598C4.86823 12.0594 4.86861 12.059 4.86899 12.0587C5.16608 11.7593 5.33296 11.3547 5.3333 10.9329V9.59996C5.3333 8.46837 5.78282 7.38313 6.58298 6.58298C7.38313 5.78282 8.46837 5.3333 9.59996 5.3333H10.9329C11.3547 5.33296 11.7593 5.16608 12.0587 4.86899C12.059 4.86861 12.0594 4.86823 12.0598 4.86784L12.9878 3.93981C12.9883 3.93934 12.9888 3.93886 12.9893 3.93839C13.3855 3.54032 13.8564 3.22439 14.375 3.00872Z"/></symbol>
	<symbol id="Return" xmlns="http://www.w3.org/2000/svg" viewBox="0 0 34 30" stroke="currentColor" fill="none"><path d="M32 6.66699H2M32 6.66699L27 11.667M32 6.66699L27 1.66699M7 28.3337L2 23.3337M2 23.3337L7 18.3337M2 23.3337H32" stroke-linecap="round" stroke-linejoin="round"/></symbol>			
	<symbol id="CreditCards" xmlns="http://www.w3.org/2000/svg" viewBox="0 0 24 24" fill="currentColor"><path fill-rule="evenodd" clip-rule="evenodd" d="M6 6C5.46957 6 4.96086 6.21071 4.58579 6.58579C4.21071 6.96086 4 7.46957 4 8V16C4 16.5304 4.21071 17.0391 4.58579 17.4142C4.96086 17.7893 5.46957 18 6 18H18C18.5304 18 19.0391 17.7893 19.4142 17.4142C19.7893 17.0391 20 16.5304 20 16V8C20 7.46957 19.7893 6.96086 19.4142 6.58579C19.0391 6.21071 18.5304 6 18 6H6ZM3.17157 5.17157C3.92172 4.42143 4.93913 4 6 4H18C19.0609 4 20.0783 4.42143 20.8284 5.17157C21.5786 5.92172 22 6.93913 22 8V16C22 17.0609 21.5786 18.0783 20.8284 18.8284C20.0783 19.5786 19.0609 20 18 20H6C4.93913 20 3.92172 19.5786 3.17157 18.8284C2.42143 18.0783 2 17.0609 2 16V8C2 6.93913 2.42143 5.92172 3.17157 5.17157Z"/><path fill-rule="evenodd" clip-rule="evenodd" d="M2 10C2 9.44772 2.44772 9 3 9H21C21.5523 9 22 9.44772 22 10C22 10.5523 21.5523 11 21 11H3C2.44772 11 2 10.5523 2 10Z"/><path fill-rule="evenodd" clip-rule="evenodd" d="M6 15C6 14.4477 6.44772 14 7 14H7.01C7.56229 14 8.01 14.4477 8.01 15C8.01 15.5523 7.56229 16 7.01 16H7C6.44772 16 6 15.5523 6 15Z"/><path fill-rule="evenodd" clip-rule="evenodd" d="M10 15C10 14.4477 10.4477 14 11 14H13C13.5523 14 14 14.4477 14 15C14 15.5523 13.5523 16 13 16H11C10.4477 16 10 15.5523 10 15Z"/></symbol>
	<symbol id="Deco" xmlns="http://www.w3.org/2000/svg" viewBox="0 0 58 20" stroke="currentColor" fill="none"><path d="M49.5359 16.9432C47.3666 16.9432 46.9948 14.8019 47.6797 12.7178C48.2221 11.0615 49.5066 9.31991 51.4201 9.31991C53.676 9.31991 53.9039 11.6038 53.247 13.6026C52.6753 15.3162 51.3908 16.9432 49.5359 16.9432ZM48.879 19.9973C52.6473 19.9973 56.0159 17.9133 57.3578 14.1449C58.7569 10.1767 57.1859 6.2085 52.0477 6.2085C47.9369 6.2085 44.7962 8.77758 43.5969 12.1755C42.2551 16.0011 43.7115 19.9973 48.879 19.9973ZM36.3747 19.9973C37.8591 19.9973 39.3729 19.6829 40.4282 19.2271C40.8 18.1998 40.828 17.2004 40.5428 16.201C39.8006 16.4862 38.7732 16.7727 37.7165 16.7727C34.861 16.7727 34.6051 14.6606 35.2048 12.8617C35.8617 10.9496 37.574 9.40786 40.287 9.40786C41.0012 9.40786 41.6861 9.52246 42.1138 9.77963C42.856 8.78025 43.2838 7.78086 43.3704 6.7535C42.7428 6.46834 41.6861 6.21117 40.3163 6.21117C35.863 6.21117 32.3505 8.80956 31.0953 12.406C29.896 15.8039 30.8101 20 36.3774 20L36.3747 19.9973ZM21.0442 11.8037C21.8143 10.0901 23.0136 9.09206 24.5846 9.09206C25.9838 9.09206 26.2116 9.86225 25.9838 10.4619C25.6413 11.2894 24.47 11.8037 21.0442 11.8037ZM22.2714 19.9973C23.7278 19.9973 25.7826 19.7122 27.4962 18.8554C27.7813 17.9133 27.7534 16.9712 27.4389 15.9998C26.3542 16.5421 24.8405 16.8566 23.4707 16.8566C21.4439 16.8566 20.3299 16.1997 20.3592 14.5447C25.8972 14.6873 28.7807 13.6879 29.7228 11.2334C30.6649 8.7496 29.0379 6.2085 25.1829 6.2085C21.0721 6.2085 18.046 9.14935 16.932 12.3181C15.7621 15.6867 16.5043 19.9973 22.2701 19.9973H22.2714ZM5.72293 19.9973C9.52059 19.9973 11.6806 18.2557 14.1924 12.9177C15.5622 9.97684 16.7335 7.09329 18.0753 4.23905L19.6743 4.7534C20.1021 4.89598 20.3313 4.6388 20.1314 4.23905L18.1899 0.270827C18.0473 -0.0143302 17.7329 -0.0436454 17.533 0.0429678L12.708 1.86984C12.3082 2.01242 12.3362 2.38419 12.7359 2.49745L14.1631 2.95451C12.9931 5.6102 11.5367 9.60641 10.3654 12.1182C9.05155 14.9165 8.39595 16.8859 6.16933 16.8859C3.9427 16.8859 3.57093 15.1443 4.51301 12.6605C5.59768 9.77697 7.42455 8.92016 9.5086 9.51979C10.0802 8.72028 10.508 7.52103 10.6785 6.43636C10.0789 6.26447 9.36469 6.2085 8.76639 6.2085C5.3978 6.2085 2.05719 7.95009 0.687373 11.6038C-1.0822 16.3143 0.554122 19.9973 5.7216 19.9973H5.72293Z" fill="currentColor"/></symbol>

	<symbol id="FilterList" xmlns="http://www.w3.org/2000/svg" viewBox="0 0 16 16" fill="none"><path d="M6.66667 12H9.33333V10.6667H6.66667V12ZM2 4V5.33333H14V4H2ZM4 8.66667H12V7.33333H4V8.66667Z" fill="currentColor"/></symbol>
	<symbol id="Trash" xmlns="http://www.w3.org/2000/svg" width="20" height="20" viewBox="0 0 20 20" fill="none"><path fill-rule="evenodd" clip-rule="evenodd" d="M7.15482 2.15483C7.46738 1.84227 7.89131 1.66667 8.33333 1.66667H11.6667C12.1087 1.66667 12.5326 1.84227 12.8452 2.15483C13.1577 2.46739 13.3333 2.89131 13.3333 3.33334V5H15.8236C15.8295 4.99994 15.8353 4.99994 15.8412 5H16.6667C17.1269 5 17.5 5.3731 17.5 5.83334C17.5 6.29357 17.1269 6.66667 16.6667 6.66667H16.6001L15.833 15.8715C15.8231 16.5207 15.5609 17.1413 15.1011 17.6011C14.6323 18.0699 13.9964 18.3333 13.3333 18.3333H6.66667C6.00362 18.3333 5.36774 18.0699 4.8989 17.6011C4.43906 17.1413 4.17685 16.5207 4.16696 15.8715L3.39989 6.66667H3.33333C2.8731 6.66667 2.5 6.29357 2.5 5.83334C2.5 5.3731 2.8731 5 3.33333 5H4.15878C4.16467 4.99994 4.17055 4.99994 4.17641 5H6.66667V3.33334C6.66667 2.89131 6.84226 2.46739 7.15482 2.15483ZM5.07233 6.66667L5.83045 15.7641C5.83237 15.7871 5.83333 15.8102 5.83333 15.8333C5.83333 16.0543 5.92113 16.2663 6.07741 16.4226C6.23369 16.5789 6.44565 16.6667 6.66667 16.6667H13.3333C13.5543 16.6667 13.7663 16.5789 13.9226 16.4226C14.0789 16.2663 14.1667 16.0543 14.1667 15.8333C14.1667 15.8102 14.1676 15.7871 14.1695 15.7641L14.9277 6.66667H5.07233ZM11.6667 5H8.33333V3.33334H11.6667V5ZM8.33333 8.33334C8.79357 8.33334 9.16667 8.70643 9.16667 9.16667V14.1667C9.16667 14.6269 8.79357 15 8.33333 15C7.8731 15 7.5 14.6269 7.5 14.1667V9.16667C7.5 8.70643 7.8731 8.33334 8.33333 8.33334ZM11.6667 8.33334C12.1269 8.33334 12.5 8.70643 12.5 9.16667V14.1667C12.5 14.6269 12.1269 15 11.6667 15C11.2064 15 10.8333 14.6269 10.8333 14.1667V9.16667C10.8333 8.70643 11.2064 8.33334 11.6667 8.33334Z" fill="currentColor"/></symbol>

	<symbol id="ArrowsPointingOut" xmlns="http://www.w3.org/2000/svg" fill="currentColor" viewBox="0 0 32 32"><path fill-rule="evenodd" clip-rule="evenodd" d="M2.66675 22.6668C2.66675 21.9304 3.2637 21.3335 4.00008 21.3335H28.0001C28.7365 21.3335 29.3334 21.9304 29.3334 22.6668C29.3334 23.4032 28.7365 24.0002 28.0001 24.0002H4.00008C3.2637 24.0002 2.66675 23.4032 2.66675 22.6668Z"/><path fill-rule="evenodd" clip-rule="evenodd" d="M8.94289 4.39052C9.46359 4.91122 9.46359 5.75544 8.94289 6.27614L5.8857 9.33333L8.94289 12.3905C9.46359 12.9112 9.46359 13.7554 8.94289 14.2761C8.42219 14.7968 7.57797 14.7968 7.05727 14.2761L3.05727 10.2761C2.53657 9.75544 2.53657 8.91122 3.05727 8.39052L7.05727 4.39052C7.57797 3.86983 8.42219 3.86983 8.94289 4.39052Z"/><path fill-rule="evenodd" clip-rule="evenodd" d="M2.66675 9.33333C2.66675 8.59695 3.2637 8 4.00008 8H28.0001C28.7365 8 29.3334 8.59695 29.3334 9.33333C29.3334 10.0697 28.7365 10.6667 28.0001 10.6667H4.00008C3.2637 10.6667 2.66675 10.0697 2.66675 9.33333Z"/><path fill-rule="evenodd" clip-rule="evenodd" d="M23.0573 17.724C23.578 17.2033 24.4222 17.2033 24.9429 17.724L28.9429 21.724C29.4636 22.2447 29.4636 23.0889 28.9429 23.6096L24.9429 27.6096C24.4222 28.1303 23.578 28.1303 23.0573 27.6096C22.5366 27.0889 22.5366 26.2447 23.0573 25.724L26.1145 22.6668L23.0573 19.6096C22.5366 19.0889 22.5366 18.2447 23.0573 17.724Z"/></symbol>
	<symbol id="Ruler" xmlns="http://www.w3.org/2000/svg" viewBox="0 0 32 32" fill="currentColor"><path fill-rule="evenodd" clip-rule="evenodd" d="M21.7238 3.05715C22.2445 2.53645 23.0887 2.53645 23.6094 3.05715L28.9428 8.39048C29.4635 8.91118 29.4635 9.7554 28.9428 10.2761L10.2761 28.9428C9.7554 29.4635 8.91118 29.4635 8.39048 28.9428L3.05715 23.6094C2.53645 23.0887 2.53645 22.2445 3.05715 21.7238L21.7238 3.05715ZM5.88558 22.6666L9.33329 26.1143L26.1143 9.33329L22.6666 5.88558L5.88558 22.6666Z"/><path fill-rule="evenodd" clip-rule="evenodd" d="M18.3905 6.39052C18.9112 5.86983 19.7554 5.86983 20.2761 6.39052L22.2761 8.39052C22.7968 8.91122 22.7968 9.75544 22.2761 10.2761C21.7554 10.7968 20.9112 10.7968 20.3905 10.2761L18.3905 8.27614C17.8698 7.75544 17.8698 6.91122 18.3905 6.39052Z"/><path fill-rule="evenodd" clip-rule="evenodd" d="M14.3905 10.3905C14.9112 9.86983 15.7554 9.86983 16.2761 10.3905L18.2761 12.3905C18.7968 12.9112 18.7968 13.7554 18.2761 14.2761C17.7554 14.7968 16.9112 14.7968 16.3905 14.2761L14.3905 12.2761C13.8698 11.7554 13.8698 10.9112 14.3905 10.3905Z"/><path fill-rule="evenodd" clip-rule="evenodd" d="M10.3905 14.3905C10.9112 13.8698 11.7554 13.8698 12.2761 14.3905L14.2761 16.3905C14.7968 16.9112 14.7968 17.7554 14.2761 18.2761C13.7554 18.7968 12.9112 18.7968 12.3905 18.2761L10.3905 16.2761C9.86983 15.7554 9.86983 14.9112 10.3905 14.3905Z"/><path fill-rule="evenodd" clip-rule="evenodd" d="M6.39052 18.3905C6.91122 17.8698 7.75544 17.8698 8.27614 18.3905L10.2761 20.3905C10.7968 20.9112 10.7968 21.7554 10.2761 22.2761C9.75544 22.7968 8.91122 22.7968 8.39052 22.2761L6.39052 20.2761C5.86983 19.7554 5.86983 18.9112 6.39052 18.3905Z"/></symbol>
	<symbol id="Message" xmlns="http://www.w3.org/2000/svg" viewBox="0 0 32 32" fill="currentColor"><path fill-rule="evenodd" clip-rule="evenodd" d="M9.33337 12C9.33337 11.2636 9.93033 10.6666 10.6667 10.6666H21.3334C22.0698 10.6666 22.6667 11.2636 22.6667 12C22.6667 12.7363 22.0698 13.3333 21.3334 13.3333H10.6667C9.93033 13.3333 9.33337 12.7363 9.33337 12Z"/><path fill-rule="evenodd" clip-rule="evenodd" d="M9.33337 17.3333C9.33337 16.597 9.93033 16 10.6667 16H18.6667C19.4031 16 20 16.597 20 17.3333C20 18.0697 19.4031 18.6667 18.6667 18.6667H10.6667C9.93033 18.6667 9.33337 18.0697 9.33337 17.3333Z"/><path fill-rule="evenodd" clip-rule="evenodd" d="M7.99996 6.66667C7.29272 6.66667 6.61444 6.94762 6.11434 7.44772C5.61424 7.94781 5.33329 8.62609 5.33329 9.33333V20C5.33329 20.7072 5.61424 21.3855 6.11434 21.8856C6.61444 22.3857 7.29272 22.6667 7.99996 22.6667H10.6666C11.403 22.6667 12 23.2636 12 24V25.6451L16.6473 22.8567C16.8545 22.7323 17.0916 22.6667 17.3333 22.6667H24C24.7072 22.6667 25.3855 22.3857 25.8856 21.8856C26.3857 21.3855 26.6666 20.7072 26.6666 20V9.33333C26.6666 8.62609 26.3857 7.94781 25.8856 7.44772C25.3855 6.94762 24.7072 6.66667 24 6.66667H7.99996ZM4.22872 5.5621C5.22892 4.5619 6.58547 4 7.99996 4H24C25.4144 4 26.771 4.5619 27.7712 5.5621C28.7714 6.56229 29.3333 7.91885 29.3333 9.33333V20C29.3333 21.4145 28.7714 22.771 27.7712 23.7712C26.771 24.7714 25.4144 25.3333 24 25.3333H17.7026L11.3526 29.1433C10.9407 29.3905 10.4277 29.3969 10.0097 29.1603C9.59168 28.9236 9.33329 28.4804 9.33329 28V25.3333H7.99996C6.58547 25.3333 5.22892 24.7714 4.22872 23.7712C3.22853 22.771 2.66663 21.4145 2.66663 20V9.33333C2.66663 7.91885 3.22853 6.56229 4.22872 5.5621Z"/></symbol>
	<symbol id="Close" xmlns="http://www.w3.org/2000/svg" viewBox="0 0 24 24" fill="currentColor"><path fill-rule="evenodd" clip-rule="evenodd" d="M5.29289 5.29289C5.68342 4.90237 6.31658 4.90237 6.70711 5.29289L12 10.5858L17.2929 5.29289C17.6834 4.90237 18.3166 4.90237 18.7071 5.29289C19.0976 5.68342 19.0976 6.31658 18.7071 6.70711L13.4142 12L18.7071 17.2929C19.0976 17.6834 19.0976 18.3166 18.7071 18.7071C18.3166 19.0976 17.6834 19.0976 17.2929 18.7071L12 13.4142L6.70711 18.7071C6.31658 19.0976 5.68342 19.0976 5.29289 18.7071C4.90237 18.3166 4.90237 17.6834 5.29289 17.2929L10.5858 12L5.29289 6.70711C4.90237 6.31658 4.90237 5.68342 5.29289 5.29289Z"/></symbol>
	<symbol id="Zoom" xmlns="http://www.w3.org/2000/svg" viewBox="0 0 32 32" fill="currentColor"><path fill-rule="evenodd" clip-rule="evenodd" d="M9.25138 3.47862C10.5455 2.94257 11.9326 2.66667 13.3333 2.66667C14.7341 2.66667 16.1212 2.94257 17.4153 3.47862C18.7094 4.01467 19.8853 4.80037 20.8758 5.79086C21.8663 6.78135 22.652 7.95724 23.188 9.25138C23.7241 10.5455 24 11.9326 24 13.3333C24 14.7341 23.7241 16.1212 23.188 17.4153C22.652 18.7094 21.8663 19.8853 20.8758 20.8758C19.8853 21.8663 18.7094 22.652 17.4153 23.188C16.1212 23.7241 14.7341 24 13.3333 24C11.9326 24 10.5455 23.7241 9.25138 23.188C7.95724 22.652 6.78135 21.8663 5.79086 20.8758C4.80037 19.8853 4.01467 18.7094 3.47862 17.4153C2.94257 16.1212 2.66667 14.7341 2.66667 13.3333C2.66667 11.9326 2.94257 10.5455 3.47862 9.25138C4.01467 7.95724 4.80037 6.78135 5.79086 5.79086C6.78135 4.80037 7.95724 4.01467 9.25138 3.47862ZM13.3333 5.33333C12.2828 5.33333 11.2425 5.54026 10.2719 5.9423C9.30126 6.34433 8.41935 6.93361 7.67648 7.67648C6.93361 8.41935 6.34433 9.30126 5.9423 10.2719C5.54026 11.2425 5.33333 12.2828 5.33333 13.3333C5.33333 14.3839 5.54026 15.4242 5.9423 16.3948C6.34433 17.3654 6.93361 18.2473 7.67648 18.9902C8.41935 19.7331 9.30126 20.3223 10.2719 20.7244C11.2425 21.1264 12.2828 21.3333 13.3333 21.3333C14.3839 21.3333 15.4242 21.1264 16.3948 20.7244C17.3654 20.3223 18.2473 19.7331 18.9902 18.9902C19.7331 18.2473 20.3223 17.3654 20.7244 16.3948C21.1264 15.4242 21.3333 14.3839 21.3333 13.3333C21.3333 12.2828 21.1264 11.2425 20.7244 10.2719C20.3223 9.30126 19.7331 8.41935 18.9902 7.67648C18.2473 6.93361 17.3654 6.34433 16.3948 5.9423C15.4242 5.54026 14.3839 5.33333 13.3333 5.33333Z"/><path fill-rule="evenodd" clip-rule="evenodd" d="M8 13.3333C8 12.597 8.59695 12 9.33333 12H17.3333C18.0697 12 18.6667 12.597 18.6667 13.3333C18.6667 14.0697 18.0697 14.6667 17.3333 14.6667H9.33333C8.59695 14.6667 8 14.0697 8 13.3333Z"/><path fill-rule="evenodd" clip-rule="evenodd" d="M13.3333 8C14.0697 8 14.6667 8.59695 14.6667 9.33333V17.3333C14.6667 18.0697 14.0697 18.6667 13.3333 18.6667C12.597 18.6667 12 18.0697 12 17.3333V9.33333C12 8.59695 12.597 8 13.3333 8Z"/><path fill-rule="evenodd" clip-rule="evenodd" d="M19.0572 19.0572C19.5779 18.5365 20.4221 18.5365 20.9428 19.0572L28.9428 27.0572C29.4635 27.5779 29.4635 28.4221 28.9428 28.9428C28.4221 29.4635 27.5779 29.4635 27.0572 28.9428L19.0572 20.9428C18.5365 20.4221 18.5365 19.5779 19.0572 19.0572Z"/></symbol>

	<symbol id="Elo" width="48" height="32" viewBox="0 0 48 32" fill="currentColor" xmlns="http://www.w3.org/2000/svg">
		<path d="M10.5988 12.1154C11.02 11.9773 11.4706 11.9024 11.9395 11.9024C13.9856 11.9024 15.6923 13.3282 16.0839 15.2222L18.9834 14.6423C18.3181 11.4232 15.4175 9 11.9395 9C11.1431 9 10.3766 9.12726 9.66113 9.36168L10.5988 12.1154Z"/>
		<path d="M7.14818 21.4445L8.88427 19.2029C8.10933 18.419 7.62022 17.2747 7.62022 15.9991C7.62022 14.7246 8.10887 13.5802 8.88359 12.797L7.14659 10.5556C5.8298 11.8873 5 13.8326 5 15.9991C5 18.1669 5.83102 20.1128 7.14818 21.4445"/>
		<path d="M16.0848 16.7778C15.6919 18.6715 13.9862 20.0955 11.9419 20.0955C11.4729 20.0955 11.0214 20.0203 10.6002 19.8818L9.66113 22.637C10.3778 22.8726 11.1445 23 11.9419 23C15.4168 23 18.3154 20.5785 18.9834 17.3606L16.0848 16.7778Z"/>
		<path fill-rule="evenodd" clip-rule="evenodd" d="M32.9337 10.5556V18.522L34.3633 19.095L33.687 20.6663L32.2733 20.098C31.9554 19.9647 31.7402 19.7616 31.5768 19.5322C31.4199 19.2976 31.3035 18.9768 31.3035 18.5439V10.5556H32.9337ZM22.0913 16.4765C22.1269 14.1983 24.067 12.3798 26.4211 12.4147C28.4192 12.445 30.0748 13.7983 30.5096 15.5983L22.7816 18.7923C22.3327 18.1286 22.0776 17.3303 22.0913 16.4765ZM23.8596 16.7959C23.8491 16.7003 23.8416 16.6023 23.8444 16.5034C23.8666 15.1612 25.0088 14.0902 26.3958 14.1124C27.1507 14.1221 27.8211 14.4565 28.2743 14.9739L23.8596 16.7959ZM28.1115 18.2749C27.6457 18.713 27.0141 18.9799 26.3167 18.9703C25.8387 18.9626 25.3958 18.8242 25.0192 18.5936L24.0857 20.032C24.725 20.4228 25.4789 20.6541 26.2916 20.6662C27.4747 20.6832 28.553 20.2339 29.337 19.4918L28.1115 18.2749ZM38.8836 14.1123C38.6051 14.1123 38.3375 14.1558 38.0874 14.237L37.5312 12.6251C37.9557 12.488 38.4104 12.4135 38.8836 12.4135C40.9483 12.4135 42.6708 13.8318 43.0658 15.7159L41.3438 16.0554C41.1118 14.9465 40.0984 14.1123 38.8836 14.1123ZM36.0562 19.6309L37.2198 18.3586C36.7001 17.9137 36.3729 17.264 36.3729 16.5398C36.3729 15.8163 36.7001 15.1668 37.2193 14.7223L36.0549 13.4499C35.1721 14.2059 34.616 15.3105 34.616 16.5398C34.616 17.7705 35.1726 18.8747 36.0562 19.6309ZM38.8835 18.9681C40.0973 18.9681 41.1105 18.1346 41.3438 17.0274L43.0653 17.3683C42.6684 19.2503 40.9464 20.6667 38.8835 20.6667C38.41 20.6667 37.9547 20.592 37.529 20.4543L38.0866 18.8429C38.337 18.9239 38.6048 18.9681 38.8835 18.9681Z"/>
	</symbol>

	<symbol id="Diners" width="48" height="32" viewBox="0 0 48 32" fill="currentColor" xmlns="http://www.w3.org/2000/svg">
		<path fill-rule="evenodd" clip-rule="evenodd" d="M21.7657 27H25.7046C31.8531 27 36.7527 22.122 36.9448 16.0963V16.0007C36.8488 9.87932 31.8531 4.90571 25.7046 5.00136H21.2853C15.425 5.19265 10.8137 10.1663 11.0058 16.0963C11.0058 22.0264 15.8093 26.9044 21.7657 27ZM12.9272 16.0006C12.9272 11.027 17.0582 6.91424 22.0539 6.91424C27.0495 6.91424 31.1806 11.027 31.1806 16.0006C31.1806 20.9742 27.0495 25.087 22.0539 25.087C17.0582 25.087 12.9272 20.9742 12.9272 16.0006Z"/>
		<path fill-rule="evenodd" clip-rule="evenodd" d="M23.4949 22.122V9.97491C26.8573 10.8357 28.9709 14.1834 28.1063 17.531C27.5298 19.8265 25.8006 21.5481 23.4949 22.122V22.122Z"/>
		<path fill-rule="evenodd" clip-rule="evenodd" d="M20.6128 22.122C17.2504 21.2612 15.2329 17.8179 16.0975 14.4703C16.674 12.2704 18.4032 10.5488 20.6128 9.97491V22.122V22.122Z"/>
	</symbol>

	<symbol id="Mastercard" width="51" height="32" viewBox="0 0 51 32" fill="currentColor" xmlns="http://www.w3.org/2000/svg">
		<path d="M23.5524 24.2952C23.637 24.3667 23.7274 24.4381 23.8163 24.5081C22.0999 25.65 20.0392 26.3135 17.827 26.3135C11.8522 26.315 7.0105 21.4733 7.0105 15.5C7.0105 9.52812 11.8522 4.685 17.8255 4.685C20.0392 4.685 22.0999 5.35 23.812 6.49041C23.7245 6.56479 23.637 6.63333 23.5713 6.70916C21.0105 8.92146 19.5449 12.1283 19.5449 15.5C19.5449 18.8702 21.0047 22.0771 23.5524 24.2952ZM31.1955 4.685C28.9788 4.685 26.9211 5.35 25.209 6.49041C25.2965 6.56479 25.384 6.63333 25.4497 6.70916C28.0105 8.92146 29.4761 12.1283 29.4761 15.5C29.4761 18.8687 28.0163 22.0727 25.4686 24.2952C25.384 24.3667 25.2936 24.4381 25.2047 24.5081C26.9211 25.65 28.9788 26.3135 31.194 26.3135C37.1688 26.315 42.0105 21.4733 42.0105 15.5C42.0105 9.52958 37.1688 4.685 31.1955 4.685ZM24.5105 7.00375C24.3705 7.11312 24.2349 7.2225 24.1022 7.34062C21.8213 9.3225 20.382 12.2406 20.382 15.5C20.382 18.7608 21.8213 21.6775 24.1022 23.6594C24.2334 23.776 24.372 23.8898 24.5105 23.9977C24.6505 23.8898 24.7861 23.776 24.9188 23.6594C27.1982 21.6775 28.639 18.7608 28.639 15.5C28.639 12.2406 27.1997 9.3225 24.9188 7.34062C24.7876 7.22396 24.6505 7.11312 24.5105 7.00375Z"/>
	</symbol>

	<symbol id="Pix" width="49" height="32" viewBox="0 0 49 32" fill="none" xmlns="http://www.w3.org/2000/svg">
		<path d="M20.3406 22.0724V14.0428C20.3406 13.3334 20.6224 12.6531 21.124 12.1515C21.6256 11.6498 22.3059 11.368 23.0153 11.368L25.3859 11.3713C26.0934 11.3728 26.7715 11.6549 27.2712 12.1557C27.771 12.6566 28.0516 13.3353 28.0515 14.0428V15.7516C28.0515 16.461 27.7697 17.1414 27.2681 17.6431C26.7665 18.1447 26.0862 18.4266 25.3768 18.4267H22.0262" stroke="currentColor" stroke-linecap="round" stroke-linejoin="round"/>
		<path d="M28.7141 11.3676H29.7425C30.0337 11.3676 30.3129 11.4833 30.5188 11.6892C30.7247 11.8951 30.8404 12.1743 30.8404 12.4655V18.4631" stroke="currentColor" stroke-linecap="round" stroke-linejoin="round"/>
		<path d="M30.6194 10.4384L30.1532 9.97175C30.1257 9.94427 30.1038 9.91163 30.089 9.87571C30.0741 9.83978 30.0664 9.80128 30.0664 9.76239C30.0664 9.72351 30.0741 9.685 30.089 9.64908C30.1038 9.61316 30.1257 9.58052 30.1532 9.55303L30.6194 9.08678C30.6751 9.03117 30.7505 8.99994 30.8292 8.99994C30.9079 8.99994 30.9833 9.03117 31.039 9.08678L31.5048 9.55303C31.5323 9.58052 31.5541 9.61316 31.569 9.64908C31.5839 9.685 31.5916 9.72351 31.5916 9.76239C31.5916 9.80128 31.5839 9.83978 31.569 9.87571C31.5541 9.91163 31.5323 9.94427 31.5048 9.97175L31.0369 10.4384C31.0094 10.4659 30.9767 10.4878 30.9408 10.5027C30.9048 10.5176 30.8663 10.5252 30.8273 10.5252C30.7884 10.5252 30.7499 10.5176 30.7139 10.5027C30.678 10.4878 30.6453 10.4659 30.6178 10.4384" fill="currentColor"/>
		<path d="M32.8145 11.3622H33.8342C34.3587 11.362 34.8619 11.5702 35.2329 11.9409L37.6183 14.3263C37.6918 14.3999 37.779 14.4582 37.875 14.498C37.971 14.5378 38.0739 14.5583 38.1778 14.5583C38.2817 14.5583 38.3846 14.5378 38.4806 14.498C38.5766 14.4582 38.6638 14.3999 38.7373 14.3263L41.114 11.95C41.2976 11.7664 41.5157 11.6208 41.7556 11.5215C41.9955 11.4222 42.2527 11.3712 42.5124 11.3713H43.3415" stroke="currentColor" stroke-linecap="round" stroke-linejoin="round"/>
		<path d="M32.8145 18.4107H33.8342C34.3587 18.4108 34.8618 18.2027 35.2329 17.832L37.6183 15.4466C37.7668 15.2983 37.968 15.215 38.1778 15.215C38.3876 15.215 38.5888 15.2983 38.7373 15.4466L41.114 17.8233C41.485 18.194 41.9879 18.4021 42.5124 18.402H43.3415" stroke="currentColor" stroke-linecap="round" stroke-linejoin="round"/>
		<path d="M14.2607 19.9342C14.0091 19.9352 13.7598 19.8862 13.5272 19.7902C13.2947 19.6942 13.0834 19.5531 12.9057 19.375L10.9485 17.4166C10.8793 17.3504 10.7872 17.3134 10.6914 17.3134C10.5957 17.3134 10.5036 17.3504 10.4343 17.4166L8.47054 19.3804C8.29294 19.5587 8.08176 19.7001 7.8492 19.7964C7.61663 19.8927 7.3673 19.9419 7.11559 19.9413H6.73242L9.21249 22.4213C9.58445 22.7925 10.0885 23.001 10.6139 23.001C11.1394 23.001 11.6434 22.7925 12.0154 22.4213L14.5004 19.9359L14.2607 19.9342Z" fill="currentColor"/>
		<path d="M7.11601 13.0132C7.36771 13.0125 7.61706 13.0617 7.84962 13.158C8.08219 13.2543 8.29337 13.3957 8.47095 13.5741L10.4348 15.5383C10.503 15.6064 10.5955 15.6446 10.6919 15.6446C10.7882 15.6446 10.8807 15.6064 10.949 15.5383L12.9057 13.5815C13.0832 13.4029 13.2943 13.2613 13.5269 13.165C13.7595 13.0686 14.0089 13.0194 14.2607 13.0202H14.4963L12.0113 10.5352C11.8272 10.3511 11.6088 10.2051 11.3683 10.1054C11.1278 10.0058 10.8701 9.95453 10.6098 9.95453C10.3495 9.95453 10.0918 10.0058 9.85132 10.1054C9.61085 10.2051 9.39238 10.3511 9.20836 10.5352L6.73242 13.0132H7.11601Z" fill="currentColor"/>
		<path d="M16.5517 15.0762L15.05 13.5745C15.0162 13.5883 14.98 13.5956 14.9434 13.596H14.2605C13.9052 13.5969 13.5646 13.738 13.3127 13.9887L11.356 15.9442C11.1797 16.1201 10.9409 16.2189 10.6919 16.2189C10.4429 16.2189 10.2041 16.1201 10.0279 15.9442L8.06367 13.9812C7.81189 13.7304 7.47127 13.5891 7.11587 13.5881H6.27761C6.24306 13.5873 6.20892 13.5805 6.17675 13.5679L4.66556 15.0762C4.29439 15.4481 4.08594 15.9521 4.08594 16.4776C4.08594 17.0031 4.29439 17.5071 4.66556 17.8791L6.17345 19.3869C6.20555 19.3741 6.23973 19.3672 6.2743 19.3667H7.11587C7.47126 19.3656 7.81187 19.2244 8.06367 18.9736L10.0275 17.0098C10.3825 16.6551 11.0013 16.6551 11.356 17.0098L13.3127 18.9662C13.5646 19.2168 13.9052 19.3579 14.2605 19.3588H14.9434C14.98 19.3591 15.0162 19.3664 15.05 19.3803L16.5517 17.8786C16.7358 17.6946 16.8818 17.4762 16.9815 17.2357C17.0811 16.9952 17.1324 16.7375 17.1324 16.4772C17.1324 16.2169 17.0811 15.9592 16.9815 15.7187C16.8818 15.4783 16.7358 15.2602 16.5517 15.0762Z" fill="currentColor"/>
	</symbol>


	<symbol id="Visa" width="49" height="32" viewBox="0 0 49 32" fill="currentColor" xmlns="http://www.w3.org/2000/svg">
		<path fill-rule="evenodd" clip-rule="evenodd" d="M15.2187 21.9066H12.0577L9.68724 12.5973C9.57473 12.1691 9.33584 11.7905 8.98444 11.6121C8.10747 11.1637 7.14112 10.8068 6.08691 10.6268V10.2684H11.1792C11.882 10.2684 12.4091 10.8068 12.4969 11.4321L13.7268 18.1472L16.8863 10.2684H19.9596L15.2187 21.9066Z"/>
		<path fill-rule="evenodd" clip-rule="evenodd" d="M21.7166 21.9066H18.7312L21.1895 10.2684H24.1748L21.7166 21.9066Z"/>
		<path fill-rule="evenodd" clip-rule="evenodd" d="M28.0374 13.4925C28.1252 12.8657 28.6523 12.5073 29.2673 12.5073C30.2336 12.4173 31.2863 12.5973 32.1648 13.0441L32.6919 10.5384C31.8134 10.18 30.8471 10 29.9701 10C27.0726 10 24.9642 11.6121 24.9642 13.8494C24.9642 15.5514 26.4576 16.4451 27.5118 16.9835C28.6523 17.5203 29.0916 17.8787 29.0037 18.4156C29.0037 19.2208 28.1252 19.5792 27.2483 19.5792C26.1941 19.5792 25.1399 19.3108 24.1751 18.8624L23.6479 21.3697C24.7022 21.8166 25.8427 21.9965 26.8969 21.9965C30.1458 22.085 32.1648 20.4745 32.1648 18.0572C32.1648 15.013 28.0374 14.8346 28.0374 13.4925V13.4925Z"/>
		<path fill-rule="evenodd" clip-rule="evenodd" d="M40.2424 10.2684L42.6128 21.9066H39.891L39.5396 20.2061H35.7635L35.1501 21.9066H32.0769L36.4663 11.1637C36.642 10.6268 37.1691 10.2684 37.6962 10.2684H40.2424ZM39.0122 17.7887L38.1353 13.4025L36.554 17.7887H39.0122Z"/>
	</symbol> -->

	<symbol id="MeiaSola" viewBox="0 0 110 18" fill="none" xmlns="http://www.w3.org/2000/svg">
		<path d="M1.95496 17.1636C1.26637 17.1636 0.649014 17.1636 0 17.1636C0 11.5362 0 5.9167 0 0.249695C0.688588 0.249695 1.38509 0.249695 2.12117 0.249695C4.274 4.86403 6.45057 9.51002 8.66671 14.2431C10.8987 9.52585 13.0832 4.9036 15.2756 0.273439C15.9642 0.273439 16.629 0.273439 17.3255 0.273439C17.3255 5.9167 17.3255 11.5441 17.3255 17.1953C16.6765 17.1953 16.0671 17.1953 15.418 17.1953C15.418 13.0084 15.418 8.82935 15.418 4.64241C15.3864 4.6345 15.3626 4.62658 15.331 4.61867C13.3602 8.81352 11.3973 13.0004 9.42654 17.2032C8.91999 17.2032 8.42136 17.2032 7.89106 17.2032C5.94402 13.0084 3.98906 8.79769 2.03411 4.58701C2.01036 4.59492 1.9787 4.59492 1.95496 4.60284C1.95496 8.77394 1.95496 12.945 1.95496 17.1636Z" fill="currentColor"/>
		<path d="M74.5892 17.6544C70.2044 17.6623 66.6348 15.2324 65.4159 11.7262C64.0387 7.76086 65.6296 3.52643 69.3179 1.33403C73.6315 -1.23037 79.3064 0.107237 81.9895 4.31791C84.2848 7.91124 83.5171 12.6601 80.2245 15.4224C78.4595 16.9104 76.4254 17.6465 74.5892 17.6544ZM74.138 1.83267C70.1885 1.81684 66.9276 4.96693 66.9197 8.81353C66.9039 12.6997 70.1015 15.8814 74.0272 15.8973C78.0479 15.9131 81.3247 12.7868 81.3405 8.92433C81.3563 5.01442 78.135 1.84058 74.138 1.83267Z" fill="currentColor"/>
		<path d="M40.5872 0.336761C41.2203 0.336761 41.8219 0.336761 42.4788 0.336761C44.9324 5.96419 47.3939 11.6074 49.8712 17.2824C49.1668 17.2824 48.494 17.2824 47.7817 17.2824C46.9982 15.4699 46.2067 13.6336 45.4073 11.7816C42.8112 11.7816 40.231 11.7816 37.6191 11.7816C36.8197 13.6099 36.0282 15.4382 35.2288 17.2744C34.5323 17.2744 33.8675 17.2744 33.1314 17.2744C35.6325 11.5916 38.1098 5.96419 40.5872 0.336761ZM38.4422 9.86619C40.5159 9.86619 42.5105 9.86619 44.5683 9.86619C43.5631 7.54715 42.5738 5.2756 41.5528 2.90907C40.5001 5.2756 39.4791 7.54715 38.4422 9.86619Z" fill="currentColor"/>
		<path d="M95.3418 17.3773C94.6611 17.3773 94.0042 17.3773 93.2523 17.3773C95.7533 11.6945 98.2307 6.05917 100.716 0.423828C101.357 0.423828 101.966 0.423828 102.623 0.423828C105.069 6.05126 107.531 11.6945 110 17.3773C109.303 17.3773 108.639 17.3773 107.926 17.3773C107.143 15.5649 106.351 13.7207 105.56 11.8766C102.956 11.8766 100.391 11.8766 97.7637 11.8766C96.9564 13.7049 96.1491 15.5411 95.3418 17.3773ZM101.666 3.01988C100.621 5.39433 99.6158 7.67379 98.5868 10.0007C100.653 10.0007 102.639 10.0007 104.681 10.0007C103.676 7.68962 102.695 5.41016 101.666 3.01988Z" fill="currentColor"/>
		<path d="M28.6832 0.328857C28.6832 0.954127 28.6832 1.54774 28.6832 2.16509C26.0397 2.16509 23.4278 2.16509 20.7843 2.16509C20.7843 4.07256 20.7843 5.94837 20.7843 7.8875C23.3487 7.8875 25.8814 7.8875 28.4458 7.8875C28.4458 8.54443 28.4458 9.13804 28.4458 9.78705C25.8893 9.78705 23.3487 9.78705 20.7843 9.78705C20.7843 11.6549 20.7843 13.4833 20.7843 15.3591C23.3249 15.3591 25.8656 15.3591 28.43 15.3591C28.43 16.0002 28.43 16.6017 28.43 17.227C25.2403 17.227 22.0506 17.227 18.8372 17.227C18.8372 11.5916 18.8372 5.9642 18.8372 0.344687C22.1456 0.328857 25.4144 0.328857 28.6832 0.328857Z" fill="currentColor"/>
		<path d="M64.197 5.1648C63.5638 5.1648 62.9623 5.1648 62.3291 5.1648C62.2579 4.75323 62.2025 4.34166 62.0996 3.938C61.7118 2.41836 60.8728 1.76935 59.3611 1.79309C57.7544 1.81683 56.6067 2.62415 56.3534 4.05673C56.1318 5.31518 56.298 6.05126 57.5248 6.65278C58.3717 7.07227 59.3057 7.3018 60.1763 7.65796C61.0153 8.00621 61.8701 8.33072 62.6299 8.80561C63.9912 9.63667 64.5769 10.9268 64.569 12.5097C64.5611 14.6942 63.5797 16.2772 61.601 17.1874C59.6697 18.0739 56.3218 17.7256 54.8734 15.6677C54.0898 14.5597 53.797 13.325 53.8524 11.9557C54.4935 11.9557 55.1108 11.9557 55.7123 11.9557C55.7757 12.486 55.7994 13.0005 55.9102 13.4912C56.3614 15.4778 58.1264 15.9527 59.3927 15.8656C60.0813 15.8181 60.7462 15.6598 61.3319 15.2562C62.5507 14.4172 63.0098 12.391 62.2816 11.1088C61.9888 10.5864 61.5297 10.2461 61.0073 10.0324C59.9309 9.60501 58.8308 9.24884 57.7544 8.82144C57.1845 8.59191 56.6146 8.33864 56.0923 8.01413C54.0977 6.77942 53.8603 4.11213 54.9763 2.27589C56.4959 -0.209356 60.6591 -0.747564 62.7803 1.24697C63.7617 2.16509 64.3078 3.85885 64.197 5.1648Z" fill="currentColor"/>
		<path d="M84.0711 17.3536C84.0711 11.7024 84.0711 6.075 84.0711 0.415909C84.728 0.415909 85.3533 0.415909 86.0023 0.415909C86.0023 5.4339 86.0023 10.4361 86.0023 15.4778C88.2106 15.4778 90.395 15.4778 92.5874 15.4778C92.5874 16.1268 92.5874 16.7204 92.5874 17.3536C89.7381 17.3536 86.9284 17.3536 84.0711 17.3536Z" fill="currentColor"/>
		<path d="M30.0921 17.2665C30.0921 11.5995 30.0921 5.98793 30.0921 0.336761C30.7569 0.336761 31.3901 0.336761 32.0312 0.336761C32.0312 5.98002 32.0312 11.6074 32.0312 17.2665C31.3664 17.2665 30.7411 17.2665 30.0921 17.2665Z" fill="currentColor"/>
	</symbol>

	<symbol id="M|S" viewBox="0 0 29 15" fill="none" xmlns="http://www.w3.org/2000/svg">
		<path d="M1.9782 7.1386L1.99408 12.2727C1.99408 12.3211 1.94575 12.3688 1.89742 12.3688H0.702895C0.677668 12.3674 0.653846 12.3569 0.635915 12.3393C0.617984 12.3217 0.60718 12.2983 0.605537 12.2734L0.63799 6.88359L0.621418 1.30291C0.621418 1.25519 0.669752 1.20746 0.718085 1.20746H2.54301C2.59135 1.20746 2.65625 1.23882 2.67213 1.30291L6.29023 10.487L9.80958 1.30291C9.82616 1.23882 9.89037 1.20746 9.93939 1.20746H11.6504C11.6987 1.20746 11.7471 1.25519 11.7471 1.30291L11.7312 6.88359L11.7636 12.2734C11.7636 12.3211 11.7153 12.3688 11.667 12.3688H10.3426C10.2943 12.3688 10.246 12.3211 10.246 12.2734L10.2618 7.13928L10.2943 4.61928L10.3102 3.24814L6.82258 12.2727C6.80601 12.3361 6.7418 12.3681 6.69347 12.3681H5.6757C5.62737 12.3681 5.56316 12.3361 5.54658 12.2727L1.92987 3.152L1.94575 4.65132L1.9782 7.1386Z" fill="currentColor"/>
		<path d="M15.1808 14.6488C15.1551 14.6471 15.1309 14.6361 15.1128 14.6181C15.0946 14.6 15.0837 14.5761 15.0821 14.5507V0.580207C15.0821 0.530434 15.1311 0.482025 15.1808 0.482025H16.1544C16.2028 0.482025 16.2525 0.530434 16.2525 0.579525V14.5507C16.2525 14.5998 16.2034 14.6488 16.1537 14.6488H15.1808Z" fill="currentColor"/>
		<path d="M23.9788 12.5604C21.0719 12.5604 19.3761 11.1886 19.2629 8.62155C19.2629 8.57382 19.3112 8.5261 19.3596 8.5261H20.7329C20.7813 8.5261 20.8296 8.57382 20.8296 8.62155C20.9746 10.3125 21.7824 11.3645 24.0106 11.3645C25.6747 11.3645 26.8526 10.7577 26.8526 9.29178C26.8526 6.23042 19.5059 8.46201 19.5059 4.18905C19.5059 2.16405 21.1203 1.01587 23.6557 1.01587C26.2395 1.01587 27.8538 2.09996 28.0803 4.42837C28.0803 4.4761 28.0319 4.52382 27.9836 4.52382H26.6103C26.5851 4.52222 26.5615 4.51165 26.5437 4.49408C26.5259 4.47652 26.5152 4.45316 26.5136 4.42837C26.401 2.9611 25.4482 2.22746 23.6067 2.22746C21.9923 2.22746 20.9587 2.80155 20.9587 4.04519C20.9587 6.93132 28.3385 4.74746 28.3385 9.10019C28.3385 11.3966 26.5619 12.5604 23.9788 12.5604Z" fill="currentColor"/>
	</symbol>

	<symbol id="Bag" viewBox="0 0 24 24" fill="none" xmlns="http://www.w3.org/2000/svg">
		<path d="M15.6 8.40005V5.40005C15.6 3.41182 13.9882 1.80005 12 1.80005C10.0118 1.80005 8.39999 3.41182 8.39999 5.40005V8.40005M4.72727 22.2H19.2727C20.558 22.2 21.6 21.1775 21.6 19.916L20.1091 7.80002C20.1091 6.53859 19.0671 5.516 17.7818 5.516H5.92727C4.64195 5.516 3.59999 6.53859 3.59999 7.80002L2.39999 19.916C2.39999 21.1775 3.44195 22.2 4.72727 22.2Z" stroke="currentColor" stroke-linecap="round" stroke-linejoin="round"/>
	</symbol>

	<symbol id="Facebook" viewBox="0 0 31 32" fill="none" xmlns="http://www.w3.org/2000/svg">
		<path d="M30.5 16C30.5 23.284 25.3074 29.3562 18.4219 30.7155V20.9805H21.5335H21.9627L22.0277 20.5563L22.7149 16.0758L22.8032 15.5H22.2207H18.4219V13.0938C18.4219 12.5529 18.5551 12.0805 18.8411 11.7497C19.1154 11.4324 19.5938 11.1719 20.4479 11.1719H22.4023H22.9023V10.6719V6.85742V6.43551L22.4864 6.36454L22.4023 6.85742L22.4863 6.36453L22.4862 6.3645L22.4858 6.36444L22.4845 6.36422L22.4801 6.36347L22.4636 6.36072L22.4017 6.35067C22.348 6.3421 22.27 6.32996 22.1714 6.31545C21.9743 6.28644 21.6943 6.24789 21.3606 6.20935C20.6953 6.13254 19.807 6.05469 18.9327 6.05469C17.0614 6.05469 15.4591 6.62363 14.324 7.75978C13.1884 8.89643 12.5781 10.543 12.5781 12.5852V15.5H9.14258H8.64258V16V20.4805V20.9805H9.14258H12.5781V30.7155C5.69262 29.3562 0.5 23.284 0.5 16C0.5 7.71572 7.21572 1 15.5 1C23.7843 1 30.5 7.71572 30.5 16Z" stroke="currentColor"/>
	</symbol>

	<symbol id="Heart" viewBox="0 0 24 24" fill="none" xmlns="http://www.w3.org/2000/svg">
		<path fill-rule="evenodd" clip-rule="evenodd" d="M3.8064 6.20635C4.70653 5.30649 5.92721 4.80097 7.2 4.80097C8.47279 4.80097 9.69346 5.30649 10.5936 6.20635L12 7.61155L13.4064 6.20635C13.8492 5.7479 14.3788 5.38223 14.9645 5.13066C15.5501 4.8791 16.1799 4.74669 16.8173 4.74115C17.4546 4.73561 18.0867 4.85706 18.6766 5.09841C19.2665 5.33975 19.8024 5.69617 20.2531 6.14685C20.7038 6.59754 21.0602 7.13347 21.3015 7.72337C21.5429 8.31327 21.6643 8.94533 21.6588 9.58268C21.6533 10.22 21.5208 10.8499 21.2693 11.4355C21.0177 12.0211 20.652 12.5508 20.1936 12.9935L12 21.1883L3.8064 12.9935C2.90654 12.0934 2.40102 10.8727 2.40102 9.59995C2.40102 8.32716 2.90654 7.10648 3.8064 6.20635V6.20635Z" stroke="currentColor" stroke-linejoin="round"/>
	</symbol>

	<symbol id="Instagram" viewBox="0 0 32 32" fill="none" xmlns="http://www.w3.org/2000/svg">
		<path d="M23.4667 7.46689H25.6M9.60001 1.06689H22.4C24.6632 1.06689 26.8337 1.96594 28.434 3.56625C30.0343 5.16656 30.9333 7.33705 30.9333 9.60023V22.4002C30.9333 24.6634 30.0343 26.8339 28.434 28.4342C26.8337 30.0345 24.6632 30.9336 22.4 30.9336H9.60001C7.33683 30.9336 5.16635 30.0345 3.56604 28.4342C1.96573 26.8339 1.06668 24.6634 1.06668 22.4002V9.60023C1.06668 7.33705 1.96573 5.16656 3.56604 3.56625C5.16635 1.96594 7.33683 1.06689 9.60001 1.06689ZM16 22.4002C14.3026 22.4002 12.6748 21.7259 11.4745 20.5257C10.2743 19.3255 9.60001 17.6976 9.60001 16.0002C9.60001 14.3028 10.2743 12.675 11.4745 11.4747C12.6748 10.2745 14.3026 9.60023 16 9.60023C17.6974 9.60023 19.3253 10.2745 20.5255 11.4747C21.7257 12.675 22.4 14.3028 22.4 16.0002C22.4 17.6976 21.7257 19.3255 20.5255 20.5257C19.3253 21.7259 17.6974 22.4002 16 22.4002Z" stroke="currentColor"/>
	</symbol>

	<symbol id="Search" viewBox="0 0 24 24" fill="none" xmlns="http://www.w3.org/2000/svg">
		<path d="M16.9269 17.0401L20.4 20.4001M19.28 11.4401C19.28 15.77 15.7699 19.2801 11.44 19.2801C7.11009 19.2801 3.6 15.77 3.6 11.4401C3.6 7.11019 7.11009 3.6001 11.44 3.6001C15.7699 3.6001 19.28 7.11019 19.28 11.4401Z" stroke="currentColor" stroke-linecap="round"/>
	</symbol>

	<symbol id="Tiktok" viewBox="0 0 24 28" fill="none" xmlns="http://www.w3.org/2000/svg">
		<path d="M17.6464 8.60333L16.8333 7.95034V8.99317V18.6664C16.8333 18.6664 16.8333 18.6665 16.8333 18.6665C16.8329 20.3627 16.3044 22.0166 15.3212 23.3987C14.3379 24.7809 12.9486 25.8225 11.3463 26.3791C9.74404 26.9357 8.0082 26.9795 6.37985 26.5045C4.7515 26.0296 3.31144 25.0594 2.25965 23.7286C1.20785 22.3979 0.596508 20.7727 0.510507 19.0786C0.424506 17.3846 0.868115 15.7058 1.77974 14.2754C2.69136 12.845 4.02575 11.734 5.59763 11.0965C7.04783 10.5084 8.63377 10.3504 10.1667 10.6368V13.7214C9.34877 13.4733 8.47796 13.4307 7.63274 13.6034C6.53591 13.8274 5.54151 14.4016 4.7992 15.2396C4.05689 16.0776 3.60683 17.134 3.51675 18.2498C3.42668 19.3657 3.70147 20.4806 4.29975 21.4268C4.89804 22.373 5.78747 23.0993 6.83416 23.4963L7.0115 23.0288L6.83416 23.4963C7.88086 23.8934 9.02821 23.9397 10.1035 23.6284C11.1788 23.3171 12.124 22.6649 12.7966 21.7701C13.4693 20.8752 13.8331 19.7861 13.8333 18.6666V18.6665V1.1665H16.8508C16.9709 2.88452 17.7067 4.50843 18.9324 5.7341C20.1581 6.95977 21.782 7.69564 23.5 7.81572V10.8216C21.3678 10.7195 19.3175 9.94534 17.6464 8.60333Z" stroke="currentColor"/>
	</symbol>

	<symbol id="User" viewBox="0 0 20 16" fill="none" xmlns="http://www.w3.org/2000/svg">
		<path d="M1.23779 15.5C2.5632 13.2892 5.46807 11.7762 10.0001 11.7762C14.5321 11.7762 17.4369 13.2892 18.7623 15.5M13.6001 4.1C13.6001 6.08823 11.9883 7.7 10.0001 7.7C8.01184 7.7 6.40007 6.08823 6.40007 4.1C6.40007 2.11177 8.01184 0.5 10.0001 0.5C11.9883 0.5 13.6001 2.11177 13.6001 4.1Z" stroke="currentColor" stroke-linecap="round"/>
	</symbol>

	<symbol id="WhatsApp" viewBox="0 0 32 32" fill="none" xmlns="http://www.w3.org/2000/svg">
		<path d="M16.0643 9.53111e-05C7.28442 9.53111e-05 0.128643 7.12007 0.128643 15.856C0.128643 18.656 0.868342 21.376 2.25126 23.776L0 32L8.44221 29.792C10.7739 31.056 13.395 31.728 16.0643 31.728C24.8442 31.728 32 24.608 32 15.872C32 11.6321 30.3437 7.64807 27.3367 4.65608C25.8624 3.17437 24.1064 1.99956 22.1711 1.20017C20.2357 0.400789 18.1598 -0.00716816 16.0643 9.53111e-05ZM16.0804 2.67209C19.6181 2.67209 22.9307 4.04808 25.4392 6.54408C26.6703 7.76864 27.6464 9.22298 28.3114 10.8237C28.9764 12.4244 29.3173 14.14 29.3146 15.872C29.3146 23.136 23.3648 29.04 16.0643 29.04C13.6844 29.04 11.3528 28.416 9.32663 27.2L8.84422 26.928L3.82714 28.24L5.16181 23.376L4.8402 22.864C3.51186 20.7659 2.80927 18.3358 2.81407 15.856C2.83015 8.59207 8.76382 2.67209 16.0804 2.67209ZM10.4201 8.52807C10.1628 8.52807 9.72864 8.62407 9.35879 9.02407C9.00502 9.42407 7.9598 10.4001 7.9598 12.3361C7.9598 14.2881 9.39095 16.16 9.56784 16.432C9.79296 16.704 12.398 20.704 16.402 22.4C17.3508 22.832 18.0905 23.072 18.6693 23.248C19.6181 23.552 20.4864 23.504 21.1779 23.408C21.9497 23.296 23.5256 22.448 23.8633 21.52C24.201 20.592 24.201 19.808 24.1045 19.632C23.992 19.472 23.7347 19.376 23.3327 19.2C22.9307 18.976 20.9688 18.016 20.6151 17.888C20.2452 17.76 20.0201 17.696 19.7146 18.08C19.4573 18.48 18.6854 19.376 18.4603 19.632C18.2191 19.904 17.994 19.936 17.608 19.744C17.1899 19.536 15.9035 19.12 14.392 17.776C13.202 16.72 12.4141 15.424 12.1729 15.0241C11.9799 14.6401 12.1568 14.4001 12.3497 14.2241C12.5266 14.0481 12.7839 13.7601 12.9447 13.5201C13.1538 13.2961 13.2181 13.1201 13.3467 12.8641C13.4754 12.5921 13.4111 12.3681 13.3146 12.1761C13.2181 12.0001 12.4141 10.0161 12.0764 9.23207C11.7548 8.46407 11.4332 8.56007 11.1759 8.54407C10.9508 8.54407 10.6935 8.52807 10.4201 8.52807Z" fill="currentColor"/>
	</symbol>

	<symbol id="Menu" viewBox="0 0 24 24" fill="none" xmlns="http://www.w3.org/2000/svg">
		<path d="M20 18H4M20 12H4M20 6H4" stroke="currentColor" stroke-linecap="round"/>
	</symbol>

	<symbol id="XMark" viewBox="0 0 16 16" fill="none" xmlns="http://www.w3.org/2000/svg">
		<path d="M14.41 3.26996L13.59 2.32996L7.99997 7.16996L2.40997 2.32996L1.58997 3.26996L7.04997 7.99996L1.58997 12.73L2.40997 13.67L7.99997 8.82996L13.59 13.67L14.41 12.73L8.94997 7.99996L14.41 3.26996Z" fill="currentColor"/>
	</symbol>
</svg>
