<svg style="display:none">
	<symbol id="ChevronDown" viewBox="0 0 24 24" fill="none" xmlns="http://www.w3.org/2000/svg">
		<path d="M7 10L12.0008 14.58L17 10" stroke="currentColor" stroke-linecap="round" stroke-linejoin="round"/>
	</symbol>

	<symbol id="ChevronUp" viewBox="0 0 24 24" fill="none" xmlns="http://www.w3.org/2000/svg">
		<path d="M17 14L11.9992 9.42L7 14" stroke="currentColor" stroke-linecap="round" stroke-linejoin="round"/>
	</symbol>

	<symbol id="ChevronLeft" viewBox="0 0 24 24" fill="none" xmlns="http://www.w3.org/2000/svg">
		<path d="M14 7L9.42 12.0008L14 17" stroke="currentColor" stroke-linecap="round" stroke-linejoin="round"/>
	</symbol>

	<symbol id="ChevronRight" viewBox="0 0 24 24" fill="none" xmlns="http://www.w3.org/2000/svg">
		<path d="M10 17L14.58 11.9992L10 7" stroke="currentColor" stroke-linecap="round" stroke-linejoin="round"/>
	</symbol>

	<symbol id="Filter" viewBox="0 0 25 24" fill="none" xmlns="http://www.w3.org/2000/svg">
		<path d="M2.8999 4.7999L12.4999 4.7999M2.8999 11.9999H12.4999M12.4999 11.9999V14.3999M12.4999 11.9999V9.5999M2.8999 19.1999H7.6999M12.4999 19.1999L22.0999 19.1999M17.2999 11.9999H22.0999M17.2999 4.7999L22.0999 4.7999M17.2999 4.7999V7.1999M17.2999 4.7999V2.3999M8.2999 21.5999V16.7999" stroke="currentColor" stroke-linecap="round" stroke-linejoin="round"/>
	</symbol>

	<symbol id="Email" viewBox="0 0 15 14" fill="none" xmlns="http://www.w3.org/2000/svg">
		<path d="M3.23438 3.93749L7.12646 6.7318C7.35119 6.89315 7.64881 6.89315 7.87354 6.7318L11.7656 3.93749M3.5625 11.0833H11.4375C12.1624 11.0833 12.75 10.4739 12.75 9.72221V4.27777C12.75 3.52605 12.1624 2.91666 11.4375 2.91666H3.5625C2.83763 2.91666 2.25 3.52605 2.25 4.27777V9.72221C2.25 10.4739 2.83763 11.0833 3.5625 11.0833Z" stroke="currentColor" stroke-linecap="round" stroke-linejoin="round"/>
	</symbol>

	<symbol id="Star" viewBox="0 0 16 16" fill="none" xmlns="http://www.w3.org/2000/svg">
		<path d="M7.66339 1.80928C7.8011 1.53025 8.19899 1.53025 8.3367 1.80928L10.1194 5.42136C10.1741 5.53217 10.2798 5.60896 10.402 5.62673L14.3882 6.20596C14.6961 6.2507 14.8191 6.62912 14.5963 6.84631L11.7119 9.65793C11.6234 9.74417 11.583 9.86844 11.6039 9.99022L12.2848 13.9603C12.3374 14.267 12.0155 14.5008 11.7401 14.356L8.17475 12.4816C8.06538 12.4241 7.93472 12.4241 7.82535 12.4816L4.26001 14.356C3.98459 14.5008 3.66269 14.267 3.71529 13.9603L4.39621 9.99022C4.4171 9.86844 4.37672 9.74417 4.28824 9.65793L1.40382 6.84631C1.181 6.62912 1.30396 6.2507 1.61189 6.20596L5.59806 5.62673C5.72033 5.60896 5.82604 5.53217 5.88073 5.42136L7.66339 1.80928Z" stroke="currentColor" stroke-linejoin="round"/>
	</symbol>

	<symbol id="MeiaSola" viewBox="0 0 110 18" fill="none" xmlns="http://www.w3.org/2000/svg">
		<path d="M1.95496 17.1636C1.26637 17.1636 0.649014 17.1636 0 17.1636C0 11.5362 0 5.9167 0 0.249695C0.688588 0.249695 1.38509 0.249695 2.12117 0.249695C4.274 4.86403 6.45057 9.51002 8.66671 14.2431C10.8987 9.52585 13.0832 4.9036 15.2756 0.273439C15.9642 0.273439 16.629 0.273439 17.3255 0.273439C17.3255 5.9167 17.3255 11.5441 17.3255 17.1953C16.6765 17.1953 16.0671 17.1953 15.418 17.1953C15.418 13.0084 15.418 8.82935 15.418 4.64241C15.3864 4.6345 15.3626 4.62658 15.331 4.61867C13.3602 8.81352 11.3973 13.0004 9.42654 17.2032C8.91999 17.2032 8.42136 17.2032 7.89106 17.2032C5.94402 13.0084 3.98906 8.79769 2.03411 4.58701C2.01036 4.59492 1.9787 4.59492 1.95496 4.60284C1.95496 8.77394 1.95496 12.945 1.95496 17.1636Z" fill="currentColor"/>
		<path d="M74.5892 17.6544C70.2044 17.6623 66.6348 15.2324 65.4159 11.7262C64.0387 7.76086 65.6296 3.52643 69.3179 1.33403C73.6315 -1.23037 79.3064 0.107237 81.9895 4.31791C84.2848 7.91124 83.5171 12.6601 80.2245 15.4224C78.4595 16.9104 76.4254 17.6465 74.5892 17.6544ZM74.138 1.83267C70.1885 1.81684 66.9276 4.96693 66.9197 8.81353C66.9039 12.6997 70.1015 15.8814 74.0272 15.8973C78.0479 15.9131 81.3247 12.7868 81.3405 8.92433C81.3563 5.01442 78.135 1.84058 74.138 1.83267Z" fill="currentColor"/>
		<path d="M40.5872 0.336761C41.2203 0.336761 41.8219 0.336761 42.4788 0.336761C44.9324 5.96419 47.3939 11.6074 49.8712 17.2824C49.1668 17.2824 48.494 17.2824 47.7817 17.2824C46.9982 15.4699 46.2067 13.6336 45.4073 11.7816C42.8112 11.7816 40.231 11.7816 37.6191 11.7816C36.8197 13.6099 36.0282 15.4382 35.2288 17.2744C34.5323 17.2744 33.8675 17.2744 33.1314 17.2744C35.6325 11.5916 38.1098 5.96419 40.5872 0.336761ZM38.4422 9.86619C40.5159 9.86619 42.5105 9.86619 44.5683 9.86619C43.5631 7.54715 42.5738 5.2756 41.5528 2.90907C40.5001 5.2756 39.4791 7.54715 38.4422 9.86619Z" fill="currentColor"/>
		<path d="M95.3418 17.3773C94.6611 17.3773 94.0042 17.3773 93.2523 17.3773C95.7533 11.6945 98.2307 6.05917 100.716 0.423828C101.357 0.423828 101.966 0.423828 102.623 0.423828C105.069 6.05126 107.531 11.6945 110 17.3773C109.303 17.3773 108.639 17.3773 107.926 17.3773C107.143 15.5649 106.351 13.7207 105.56 11.8766C102.956 11.8766 100.391 11.8766 97.7637 11.8766C96.9564 13.7049 96.1491 15.5411 95.3418 17.3773ZM101.666 3.01988C100.621 5.39433 99.6158 7.67379 98.5868 10.0007C100.653 10.0007 102.639 10.0007 104.681 10.0007C103.676 7.68962 102.695 5.41016 101.666 3.01988Z" fill="currentColor"/>
		<path d="M28.6832 0.328857C28.6832 0.954127 28.6832 1.54774 28.6832 2.16509C26.0397 2.16509 23.4278 2.16509 20.7843 2.16509C20.7843 4.07256 20.7843 5.94837 20.7843 7.8875C23.3487 7.8875 25.8814 7.8875 28.4458 7.8875C28.4458 8.54443 28.4458 9.13804 28.4458 9.78705C25.8893 9.78705 23.3487 9.78705 20.7843 9.78705C20.7843 11.6549 20.7843 13.4833 20.7843 15.3591C23.3249 15.3591 25.8656 15.3591 28.43 15.3591C28.43 16.0002 28.43 16.6017 28.43 17.227C25.2403 17.227 22.0506 17.227 18.8372 17.227C18.8372 11.5916 18.8372 5.9642 18.8372 0.344687C22.1456 0.328857 25.4144 0.328857 28.6832 0.328857Z" fill="currentColor"/>
		<path d="M64.197 5.1648C63.5638 5.1648 62.9623 5.1648 62.3291 5.1648C62.2579 4.75323 62.2025 4.34166 62.0996 3.938C61.7118 2.41836 60.8728 1.76935 59.3611 1.79309C57.7544 1.81683 56.6067 2.62415 56.3534 4.05673C56.1318 5.31518 56.298 6.05126 57.5248 6.65278C58.3717 7.07227 59.3057 7.3018 60.1763 7.65796C61.0153 8.00621 61.8701 8.33072 62.6299 8.80561C63.9912 9.63667 64.5769 10.9268 64.569 12.5097C64.5611 14.6942 63.5797 16.2772 61.601 17.1874C59.6697 18.0739 56.3218 17.7256 54.8734 15.6677C54.0898 14.5597 53.797 13.325 53.8524 11.9557C54.4935 11.9557 55.1108 11.9557 55.7123 11.9557C55.7757 12.486 55.7994 13.0005 55.9102 13.4912C56.3614 15.4778 58.1264 15.9527 59.3927 15.8656C60.0813 15.8181 60.7462 15.6598 61.3319 15.2562C62.5507 14.4172 63.0098 12.391 62.2816 11.1088C61.9888 10.5864 61.5297 10.2461 61.0073 10.0324C59.9309 9.60501 58.8308 9.24884 57.7544 8.82144C57.1845 8.59191 56.6146 8.33864 56.0923 8.01413C54.0977 6.77942 53.8603 4.11213 54.9763 2.27589C56.4959 -0.209356 60.6591 -0.747564 62.7803 1.24697C63.7617 2.16509 64.3078 3.85885 64.197 5.1648Z" fill="currentColor"/>
		<path d="M84.0711 17.3536C84.0711 11.7024 84.0711 6.075 84.0711 0.415909C84.728 0.415909 85.3533 0.415909 86.0023 0.415909C86.0023 5.4339 86.0023 10.4361 86.0023 15.4778C88.2106 15.4778 90.395 15.4778 92.5874 15.4778C92.5874 16.1268 92.5874 16.7204 92.5874 17.3536C89.7381 17.3536 86.9284 17.3536 84.0711 17.3536Z" fill="currentColor"/>
		<path d="M30.0921 17.2665C30.0921 11.5995 30.0921 5.98793 30.0921 0.336761C30.7569 0.336761 31.3901 0.336761 32.0312 0.336761C32.0312 5.98002 32.0312 11.6074 32.0312 17.2665C31.3664 17.2665 30.7411 17.2665 30.0921 17.2665Z" fill="currentColor"/>
	</symbol>

	<symbol id="M|S" width="29" height="15" viewBox="0 0 29 15" fill="none" xmlns="http://www.w3.org/2000/svg">
		<path d="M1.9782 7.1386L1.99408 12.2727C1.99408 12.3211 1.94575 12.3688 1.89742 12.3688H0.702895C0.677668 12.3674 0.653846 12.3569 0.635915 12.3393C0.617984 12.3217 0.60718 12.2983 0.605537 12.2734L0.63799 6.88359L0.621418 1.30291C0.621418 1.25519 0.669752 1.20746 0.718085 1.20746H2.54301C2.59135 1.20746 2.65625 1.23882 2.67213 1.30291L6.29023 10.487L9.80958 1.30291C9.82616 1.23882 9.89037 1.20746 9.93939 1.20746H11.6504C11.6987 1.20746 11.7471 1.25519 11.7471 1.30291L11.7312 6.88359L11.7636 12.2734C11.7636 12.3211 11.7153 12.3688 11.667 12.3688H10.3426C10.2943 12.3688 10.246 12.3211 10.246 12.2734L10.2618 7.13928L10.2943 4.61928L10.3102 3.24814L6.82258 12.2727C6.80601 12.3361 6.7418 12.3681 6.69347 12.3681H5.6757C5.62737 12.3681 5.56316 12.3361 5.54658 12.2727L1.92987 3.152L1.94575 4.65132L1.9782 7.1386Z" fill="currentColor"/>
		<path d="M15.1808 14.6488C15.1551 14.6471 15.1309 14.6361 15.1128 14.6181C15.0946 14.6 15.0837 14.5761 15.0821 14.5507V0.580207C15.0821 0.530434 15.1311 0.482025 15.1808 0.482025H16.1544C16.2028 0.482025 16.2525 0.530434 16.2525 0.579525V14.5507C16.2525 14.5998 16.2034 14.6488 16.1537 14.6488H15.1808Z" fill="currentColor"/>
		<path d="M23.9788 12.5604C21.0719 12.5604 19.3761 11.1886 19.2629 8.62155C19.2629 8.57382 19.3112 8.5261 19.3596 8.5261H20.7329C20.7813 8.5261 20.8296 8.57382 20.8296 8.62155C20.9746 10.3125 21.7824 11.3645 24.0106 11.3645C25.6747 11.3645 26.8526 10.7577 26.8526 9.29178C26.8526 6.23042 19.5059 8.46201 19.5059 4.18905C19.5059 2.16405 21.1203 1.01587 23.6557 1.01587C26.2395 1.01587 27.8538 2.09996 28.0803 4.42837C28.0803 4.4761 28.0319 4.52382 27.9836 4.52382H26.6103C26.5851 4.52222 26.5615 4.51165 26.5437 4.49408C26.5259 4.47652 26.5152 4.45316 26.5136 4.42837C26.401 2.9611 25.4482 2.22746 23.6067 2.22746C21.9923 2.22746 20.9587 2.80155 20.9587 4.04519C20.9587 6.93132 28.3385 4.74746 28.3385 9.10019C28.3385 11.3966 26.5619 12.5604 23.9788 12.5604Z" fill="currentColor"/>
	</symbol>

	<symbol id="Bag" viewBox="0 0 24 24" fill="none" xmlns="http://www.w3.org/2000/svg">
		<path d="M15.6 8.40005V5.40005C15.6 3.41182 13.9882 1.80005 12 1.80005C10.0118 1.80005 8.39999 3.41182 8.39999 5.40005V8.40005M4.72727 22.2H19.2727C20.558 22.2 21.6 21.1775 21.6 19.916L20.1091 7.80002C20.1091 6.53859 19.0671 5.516 17.7818 5.516H5.92727C4.64195 5.516 3.59999 6.53859 3.59999 7.80002L2.39999 19.916C2.39999 21.1775 3.44195 22.2 4.72727 22.2Z" stroke="currentColor" stroke-linecap="round" stroke-linejoin="round"/>
	</symbol>

	<symbol id="Facebook" viewBox="0 0 31 32" fill="none" xmlns="http://www.w3.org/2000/svg">
		<path d="M30.5 16C30.5 23.284 25.3074 29.3562 18.4219 30.7155V20.9805H21.5335H21.9627L22.0277 20.5563L22.7149 16.0758L22.8032 15.5H22.2207H18.4219V13.0938C18.4219 12.5529 18.5551 12.0805 18.8411 11.7497C19.1154 11.4324 19.5938 11.1719 20.4479 11.1719H22.4023H22.9023V10.6719V6.85742V6.43551L22.4864 6.36454L22.4023 6.85742L22.4863 6.36453L22.4862 6.3645L22.4858 6.36444L22.4845 6.36422L22.4801 6.36347L22.4636 6.36072L22.4017 6.35067C22.348 6.3421 22.27 6.32996 22.1714 6.31545C21.9743 6.28644 21.6943 6.24789 21.3606 6.20935C20.6953 6.13254 19.807 6.05469 18.9327 6.05469C17.0614 6.05469 15.4591 6.62363 14.324 7.75978C13.1884 8.89643 12.5781 10.543 12.5781 12.5852V15.5H9.14258H8.64258V16V20.4805V20.9805H9.14258H12.5781V30.7155C5.69262 29.3562 0.5 23.284 0.5 16C0.5 7.71572 7.21572 1 15.5 1C23.7843 1 30.5 7.71572 30.5 16Z" stroke="currentColor"/>
	</symbol>

	<symbol id="Heart" viewBox="0 0 24 24" fill="none" xmlns="http://www.w3.org/2000/svg">
		<path fill-rule="evenodd" clip-rule="evenodd" d="M3.8064 6.20635C4.70653 5.30649 5.92721 4.80097 7.2 4.80097C8.47279 4.80097 9.69346 5.30649 10.5936 6.20635L12 7.61155L13.4064 6.20635C13.8492 5.7479 14.3788 5.38223 14.9645 5.13066C15.5501 4.8791 16.1799 4.74669 16.8173 4.74115C17.4546 4.73561 18.0867 4.85706 18.6766 5.09841C19.2665 5.33975 19.8024 5.69617 20.2531 6.14685C20.7038 6.59754 21.0602 7.13347 21.3015 7.72337C21.5429 8.31327 21.6643 8.94533 21.6588 9.58268C21.6533 10.22 21.5208 10.8499 21.2693 11.4355C21.0177 12.0211 20.652 12.5508 20.1936 12.9935L12 21.1883L3.8064 12.9935C2.90654 12.0934 2.40102 10.8727 2.40102 9.59995C2.40102 8.32716 2.90654 7.10648 3.8064 6.20635V6.20635Z" stroke="currentColor" stroke-linejoin="round"/>
	</symbol>

	<symbol id="Instagram" viewBox="0 0 32 32" fill="none" xmlns="http://www.w3.org/2000/svg">
		<path d="M23.4667 7.46689H25.6M9.60001 1.06689H22.4C24.6632 1.06689 26.8337 1.96594 28.434 3.56625C30.0343 5.16656 30.9333 7.33705 30.9333 9.60023V22.4002C30.9333 24.6634 30.0343 26.8339 28.434 28.4342C26.8337 30.0345 24.6632 30.9336 22.4 30.9336H9.60001C7.33683 30.9336 5.16635 30.0345 3.56604 28.4342C1.96573 26.8339 1.06668 24.6634 1.06668 22.4002V9.60023C1.06668 7.33705 1.96573 5.16656 3.56604 3.56625C5.16635 1.96594 7.33683 1.06689 9.60001 1.06689ZM16 22.4002C14.3026 22.4002 12.6748 21.7259 11.4745 20.5257C10.2743 19.3255 9.60001 17.6976 9.60001 16.0002C9.60001 14.3028 10.2743 12.675 11.4745 11.4747C12.6748 10.2745 14.3026 9.60023 16 9.60023C17.6974 9.60023 19.3253 10.2745 20.5255 11.4747C21.7257 12.675 22.4 14.3028 22.4 16.0002C22.4 17.6976 21.7257 19.3255 20.5255 20.5257C19.3253 21.7259 17.6974 22.4002 16 22.4002Z" stroke="currentColor"/>
	</symbol>

	<symbol id="Search" viewBox="0 0 24 24" fill="none" xmlns="http://www.w3.org/2000/svg">
		<path d="M16.9269 17.0401L20.4 20.4001M19.28 11.4401C19.28 15.77 15.7699 19.2801 11.44 19.2801C7.11009 19.2801 3.6 15.77 3.6 11.4401C3.6 7.11019 7.11009 3.6001 11.44 3.6001C15.7699 3.6001 19.28 7.11019 19.28 11.4401Z" stroke="currentColor" stroke-linecap="round"/>
	</symbol>

	<symbol id="Tiktok" viewBox="0 0 24 28" fill="none" xmlns="http://www.w3.org/2000/svg">
		<path d="M17.6464 8.60333L16.8333 7.95034V8.99317V18.6664C16.8333 18.6664 16.8333 18.6665 16.8333 18.6665C16.8329 20.3627 16.3044 22.0166 15.3212 23.3987C14.3379 24.7809 12.9486 25.8225 11.3463 26.3791C9.74404 26.9357 8.0082 26.9795 6.37985 26.5045C4.7515 26.0296 3.31144 25.0594 2.25965 23.7286C1.20785 22.3979 0.596508 20.7727 0.510507 19.0786C0.424506 17.3846 0.868115 15.7058 1.77974 14.2754C2.69136 12.845 4.02575 11.734 5.59763 11.0965C7.04783 10.5084 8.63377 10.3504 10.1667 10.6368V13.7214C9.34877 13.4733 8.47796 13.4307 7.63274 13.6034C6.53591 13.8274 5.54151 14.4016 4.7992 15.2396C4.05689 16.0776 3.60683 17.134 3.51675 18.2498C3.42668 19.3657 3.70147 20.4806 4.29975 21.4268C4.89804 22.373 5.78747 23.0993 6.83416 23.4963L7.0115 23.0288L6.83416 23.4963C7.88086 23.8934 9.02821 23.9397 10.1035 23.6284C11.1788 23.3171 12.124 22.6649 12.7966 21.7701C13.4693 20.8752 13.8331 19.7861 13.8333 18.6666V18.6665V1.1665H16.8508C16.9709 2.88452 17.7067 4.50843 18.9324 5.7341C20.1581 6.95977 21.782 7.69564 23.5 7.81572V10.8216C21.3678 10.7195 19.3175 9.94534 17.6464 8.60333Z" stroke="currentColor"/>
	</symbol>

	<symbol id="User" viewBox="0 0 20 16" fill="none" xmlns="http://www.w3.org/2000/svg">
		<path d="M1.23779 15.5C2.5632 13.2892 5.46807 11.7762 10.0001 11.7762C14.5321 11.7762 17.4369 13.2892 18.7623 15.5M13.6001 4.1C13.6001 6.08823 11.9883 7.7 10.0001 7.7C8.01184 7.7 6.40007 6.08823 6.40007 4.1C6.40007 2.11177 8.01184 0.5 10.0001 0.5C11.9883 0.5 13.6001 2.11177 13.6001 4.1Z" stroke="currentColor" stroke-linecap="round"/>
	</symbol>

	<symbol id="WhatsApp" viewBox="0 0 32 32" fill="none" xmlns="http://www.w3.org/2000/svg">
		<path d="M16.0643 9.53111e-05C7.28442 9.53111e-05 0.128643 7.12007 0.128643 15.856C0.128643 18.656 0.868342 21.376 2.25126 23.776L0 32L8.44221 29.792C10.7739 31.056 13.395 31.728 16.0643 31.728C24.8442 31.728 32 24.608 32 15.872C32 11.6321 30.3437 7.64807 27.3367 4.65608C25.8624 3.17437 24.1064 1.99956 22.1711 1.20017C20.2357 0.400789 18.1598 -0.00716816 16.0643 9.53111e-05ZM16.0804 2.67209C19.6181 2.67209 22.9307 4.04808 25.4392 6.54408C26.6703 7.76864 27.6464 9.22298 28.3114 10.8237C28.9764 12.4244 29.3173 14.14 29.3146 15.872C29.3146 23.136 23.3648 29.04 16.0643 29.04C13.6844 29.04 11.3528 28.416 9.32663 27.2L8.84422 26.928L3.82714 28.24L5.16181 23.376L4.8402 22.864C3.51186 20.7659 2.80927 18.3358 2.81407 15.856C2.83015 8.59207 8.76382 2.67209 16.0804 2.67209ZM10.4201 8.52807C10.1628 8.52807 9.72864 8.62407 9.35879 9.02407C9.00502 9.42407 7.9598 10.4001 7.9598 12.3361C7.9598 14.2881 9.39095 16.16 9.56784 16.432C9.79296 16.704 12.398 20.704 16.402 22.4C17.3508 22.832 18.0905 23.072 18.6693 23.248C19.6181 23.552 20.4864 23.504 21.1779 23.408C21.9497 23.296 23.5256 22.448 23.8633 21.52C24.201 20.592 24.201 19.808 24.1045 19.632C23.992 19.472 23.7347 19.376 23.3327 19.2C22.9307 18.976 20.9688 18.016 20.6151 17.888C20.2452 17.76 20.0201 17.696 19.7146 18.08C19.4573 18.48 18.6854 19.376 18.4603 19.632C18.2191 19.904 17.994 19.936 17.608 19.744C17.1899 19.536 15.9035 19.12 14.392 17.776C13.202 16.72 12.4141 15.424 12.1729 15.0241C11.9799 14.6401 12.1568 14.4001 12.3497 14.2241C12.5266 14.0481 12.7839 13.7601 12.9447 13.5201C13.1538 13.2961 13.2181 13.1201 13.3467 12.8641C13.4754 12.5921 13.4111 12.3681 13.3146 12.1761C13.2181 12.0001 12.4141 10.0161 12.0764 9.23207C11.7548 8.46407 11.4332 8.56007 11.1759 8.54407C10.9508 8.54407 10.6935 8.52807 10.4201 8.52807Z" fill="currentColor"/>
	</symbol>

	<symbol id="Menu" viewBox="0 0 24 24" fill="none" xmlns="http://www.w3.org/2000/svg">
		<path d="M20 18H4M20 12H4M20 6H4" stroke="currentColor" stroke-linecap="round"/>
	</symbol>

	<symbol id="XMark" viewBox="0 0 16 16" fill="none" xmlns="http://www.w3.org/2000/svg">
		<path d="M14.41 3.26996L13.59 2.32996L7.99997 7.16996L2.40997 2.32996L1.58997 3.26996L7.04997 7.99996L1.58997 12.73L2.40997 13.67L7.99997 8.82996L13.59 13.67L14.41 12.73L8.94997 7.99996L14.41 3.26996Z" fill="currentColor"/>
	</symbol>

	<symbol id="Ruler" viewBox="0 0 24 24" fill="none" xmlns="http://www.w3.org/2000/svg">
		<path d="M9.95549 17.9864L8.11344 16.1443M12.7185 15.2233L10.8765 13.3813M15.4816 12.4603L13.6396 10.6182M18.2447 9.6972L16.4026 7.85516M8.32411 21.2185L21.2184 8.3242C21.7271 7.81553 21.7271 6.99082 21.2184 6.48216L17.5177 2.78149C17.0091 2.27283 16.1844 2.27283 15.6757 2.78149L2.7814 15.6758C2.27274 16.1844 2.27274 17.0092 2.7814 17.5178L6.48207 21.2185C6.99073 21.7272 7.81544 21.7272 8.32411 21.2185Z" stroke="black" stroke-linecap="round" stroke-linejoin="round"/>
	</symbol>

	<symbol id="Location" viewBox="0 0 24 24" fill="none" xmlns="http://www.w3.org/2000/svg">
		<path d="M11.9999 21.6C11.9999 21.6 19.5129 14.9217 19.5129 9.91304C19.5129 5.7637 16.1492 2.39999 11.9999 2.39999C7.85052 2.39999 4.48682 5.7637 4.48682 9.91304C4.48682 14.9217 11.9999 21.6 11.9999 21.6Z" stroke="currentColor"/>
		<path d="M14.4002 9.60015C14.4002 10.9256 13.3257 12.0001 12.0002 12.0001C10.6747 12.0001 9.60017 10.9256 9.60017 9.60015C9.60017 8.27466 10.6747 7.20015 12.0002 7.20015C13.3257 7.20015 14.4002 8.27466 14.4002 9.60015Z" stroke="currentColor"/>
	</symbol>
	
	<symbol id="Trash" viewBox="0 0 16 16" fill="none" xmlns="http://www.w3.org/2000/svg">
		<path d="M2.66663 4.11765H13.3333M5.99996 2H9.99996M6.66663 11.1765V6.94118M9.33329 11.1765V6.94118M10.3333 14H5.66663C4.93025 14 4.33329 13.3679 4.33329 12.5882L4.02889 4.85292C4.01311 4.45189 4.3159 4.11765 4.69498 4.11765H11.3049C11.684 4.11765 11.9868 4.45189 11.971 4.85292L11.6666 12.5882C11.6666 13.3679 11.0697 14 10.3333 14Z" stroke="currentColor" stroke-linecap="round" stroke-linejoin="round">
	</symbol>

</svg>
